<?xml version="1.0" encoding="UTF-8" standalone="no"?>
<!-- Generator: Adobe Illustrator 16.0.0, SVG Export Plug-In . SVG Version: 6.00 Build 0)  -->

<svg
   xmlns:dc="http://purl.org/dc/elements/1.1/"
   xmlns:cc="http://creativecommons.org/ns#"
   xmlns:rdf="http://www.w3.org/1999/02/22-rdf-syntax-ns#"
   xmlns:svg="http://www.w3.org/2000/svg"
   xmlns="http://www.w3.org/2000/svg"
   xmlns:sodipodi="http://sodipodi.sourceforge.net/DTD/sodipodi-0.dtd"
   xmlns:inkscape="http://www.inkscape.org/namespaces/inkscape"
   version="1.1"
   id="Layer_1"
   x="0px"
   y="0px"
   width="120"
   height="120"
   viewBox="0 0 120 120"
   enable-background="new 0 0 416 286"
   xml:space="preserve"
   inkscape:version="0.48.5 r10040"
   sodipodi:docname="jQuery.svg"><metadata
     id="metadata309"><rdf:RDF><cc:Work
         rdf:about=""><dc:format>image/svg+xml</dc:format><dc:type
           rdf:resource="http://purl.org/dc/dcmitype/StillImage" /></cc:Work></rdf:RDF></metadata><defs
     id="defs307" /><sodipodi:namedview
     pagecolor="#ffffff"
     bordercolor="#666666"
     borderopacity="1"
     objecttolerance="10"
     gridtolerance="10"
     guidetolerance="10"
     inkscape:pageopacity="0"
     inkscape:pageshadow="2"
     inkscape:window-width="1268"
     inkscape:window-height="695"
     id="namedview305"
     showgrid="false"
     inkscape:zoom="3"
     inkscape:cx="14.403814"
     inkscape:cy="63"
     inkscape:window-x="443"
     inkscape:window-y="156"
     inkscape:window-maximized="0"
     inkscape:current-layer="g3117" /><g
     display="none"
     id="g65"
     style="display:none"
     transform="translate(0,-166)"><g
       display="inline"
       id="g67"
       style="display:inline"><polygon
         points="84.157,286 166.721,286 84.157,143 42.878,214.5 "
         id="polygon69"
         style="fill:#303f9f" /><polygon
         points="331.842,143 373.121,71.5 331.842,0 249.278,0 "
         id="polygon71"
         style="fill:#3f51b5" /><polygon
         points="331.842,286 414.4,143 373.121,71.5 249.278,286 "
         id="polygon73"
         style="fill:#7986cb" /><polygon
         points="42.878,214.5 166.721,0 84.157,0 1.596,143 "
         id="polygon75"
         style="fill:#536dfe" /><polygon
         points="249.278,0 290.561,71.5 331.842,0 "
         id="polygon77"
         style="fill-opacity:0.5" /><polygon
         points="84.157,286 125.438,214.5 166.721,286 "
         id="polygon79"
         style="fill-opacity:0.5" /><polygon
         points="84.157,0 125.438,71.5 166.721,0 "
         id="polygon81"
         style="fill:#ffffff;fill-opacity:0.2" /><polygon
         points="42.878,71.5 84.157,0 125.438,71.5 "
         id="polygon83"
         style="fill:#ffffff;fill-opacity:0.1" /><polygon
         points="42.878,71.5 84.157,143 125.438,71.5 "
         id="polygon85"
         style="fill:#ffffff;fill-opacity:0" /><polygon
         points="1.598,143 42.878,71.5 84.157,143 "
         id="polygon87"
         style="fill-opacity:0.1" /><polygon
         points="1.598,143 42.878,214.5 84.157,143 "
         id="polygon89"
         style="fill-opacity:0.2" /><polygon
         points="125.438,214.5 84.157,143 42.878,214.5 "
         id="polygon91"
         style="fill:#ffffff;fill-opacity:0" /><polygon
         points="373.121,71.5 331.842,143 290.561,71.5 "
         id="polygon93"
         style="fill:#ffffff;fill-opacity:0" /><g
         id="g95"><polygon
           points="331.842,143 373.121,71.5 414.4,143 "
           id="polygon97"
           style="fill:#ffffff;fill-opacity:0.2" /><polygon
           points="331.842,143 373.121,214.5 414.4,143 "
           id="polygon99"
           style="fill:#ffffff;fill-opacity:0.1" /><polygon
           points="290.561,214.5 331.842,143 373.121,214.5 "
           id="polygon101"
           style="fill:#ffffff;fill-opacity:0" /><polygon
           points="290.561,214.5 331.842,286 373.121,214.5 "
           id="polygon103"
           style="fill-opacity:0.1" /><polygon
           points="249.278,286 290.561,214.5 331.842,286 "
           id="polygon105"
           style="fill-opacity:0.2" /></g><polygon
         points="125.438,214.5 84.157,286 42.878,214.5 "
         id="polygon107"
         style="fill-opacity:0.2" /><polygon
         points="373.121,71.5 331.842,0 290.561,71.5 "
         id="polygon109"
         style="fill-opacity:0.2" /></g><rect
       y="-65"
       display="inline"
       width="416"
       height="416"
       id="rect111"
       x="0"
       style="fill:none;display:inline" /></g><g
     display="none"
     id="g113"
     style="display:none"
     transform="translate(0,-166)"><g
       display="inline"
       id="g115"
       style="display:inline"><polygon
         points="166.721,286 331.843,0 249.279,0 84.157,286 "
         id="polygon117"
         style="fill:#ff4081" /><polygon
         points="249.279,0 290.558,71.5 331.843,0 "
         id="polygon119"
         style="fill:#ffffff;fill-opacity:0.2" /><polygon
         points="208,71.5 249.279,0 290.558,71.5 "
         id="polygon121"
         style="fill:#ffffff;fill-opacity:0.1" /><polygon
         points="208,71.5 249.279,143 290.558,71.5 "
         id="polygon123"
         style="fill:#ffffff;fill-opacity:0" /><polygon
         points="166.721,143 208,214.5 249.279,143 "
         id="polygon125"
         style="fill-opacity:0.2" /><polygon
         points="125.439,214.5 166.721,143 208,214.5 "
         id="polygon127"
         style="fill-opacity:0.3" /><polygon
         points="125.439,214.5 166.721,286 208,214.5 "
         id="polygon129"
         style="fill-opacity:0.4" /><polygon
         points="84.157,286 125.439,214.5 166.721,286 "
         id="polygon131"
         style="fill-opacity:0.5" /><polygon
         points="166.721,143 208,71.5 249.279,143 "
         id="polygon133"
         style="fill-opacity:0.1" /></g><g
       display="inline"
       id="g135"
       style="display:inline"><polygon
         points="249.279,286 373.121,71.5 331.84,0 166.718,286 "
         id="polygon137"
         style="fill:#ff4081" /><polygon
         points="290.558,71.5 331.84,0 373.121,71.5 "
         id="polygon139"
         style="fill:#ffffff;fill-opacity:0.1" /><polygon
         points="290.558,71.5 331.84,143 373.121,71.5 "
         id="polygon141"
         style="fill:#ffffff;fill-opacity:0" /><polygon
         points="249.279,143 290.558,214.5 331.84,143 "
         id="polygon143"
         style="fill-opacity:0.2" /><polygon
         points="208,214.5 249.279,143 290.558,214.5 "
         id="polygon145"
         style="fill-opacity:0.3" /><polygon
         points="208,214.5 249.279,286 290.558,214.5 "
         id="polygon147"
         style="fill-opacity:0.4" /><polygon
         points="166.718,286 208,214.5 249.279,286 "
         id="polygon149"
         style="fill-opacity:0.5" /><polygon
         points="249.279,143 290.558,71.5 331.84,143 "
         id="polygon151"
         style="fill-opacity:0.1" /></g><g
       display="inline"
       id="g153"
       style="display:inline"><polygon
         points="84.16,286 249.279,0 166.718,0 42.878,214.5 "
         id="polygon155"
         style="fill:#ff4081" /><polygon
         points="166.718,0 208,71.5 249.279,0 "
         id="polygon157"
         style="fill:#ffffff;fill-opacity:0.2" /><polygon
         points="125.439,71.5 166.718,0 208,71.5 "
         id="polygon159"
         style="fill:#ffffff;fill-opacity:0.1" /><polygon
         points="125.439,71.5 166.718,143 208,71.5 "
         id="polygon161"
         style="fill:#ffffff;fill-opacity:0" /><polygon
         points="84.16,143 125.439,214.5 166.718,143 "
         id="polygon163"
         style="fill-opacity:0.2" /><polygon
         points="42.878,214.5 84.16,143 125.439,214.5 "
         id="polygon165"
         style="fill-opacity:0.3" /><polygon
         points="42.878,214.5 84.16,286 125.439,214.5 "
         id="polygon167"
         style="fill-opacity:0.4" /><polygon
         points="84.16,143 125.439,71.5 166.718,143 "
         id="polygon169"
         style="fill-opacity:0.1" /></g><rect
       y="-65"
       display="inline"
       width="416"
       height="416"
       id="rect171"
       x="0"
       style="fill:none;display:inline" /><g
       display="inline"
       id="g173"
       style="display:inline"><polygon
         points="84.157,286 166.721,286 84.157,143 42.878,214.5 "
         id="polygon175"
         style="fill:#303f9f" /><polygon
         points="331.843,143 373.121,71.5 331.843,0 249.279,0 "
         id="polygon177"
         style="fill:#3f51b5" /><polygon
         points="331.843,286 414.4,143 373.121,71.5 249.279,286 "
         id="polygon179"
         style="fill:#7986cb" /><polygon
         points="42.878,214.5 166.721,0 84.157,0 1.597,143 "
         id="polygon181"
         style="fill:#536dfe" /><polygon
         points="249.279,0 290.558,71.5 331.843,0 "
         id="polygon183"
         style="fill-opacity:0.5" /><polygon
         points="84.157,286 125.439,214.5 166.721,286 "
         id="polygon185"
         style="fill-opacity:0.5" /><polygon
         points="84.157,0 125.439,71.5 166.721,0 "
         id="polygon187"
         style="fill:#ffffff;fill-opacity:0.2" /><polygon
         points="42.878,71.5 84.157,0 125.439,71.5 "
         id="polygon189"
         style="fill:#ffffff;fill-opacity:0.1" /><polygon
         points="42.878,71.5 84.157,143 125.439,71.5 "
         id="polygon191"
         style="fill:#ffffff;fill-opacity:0" /><polygon
         points="1.6,143 42.878,71.5 84.157,143 "
         id="polygon193"
         style="fill-opacity:0.1" /><polygon
         points="1.6,143 42.878,214.5 84.157,143 "
         id="polygon195"
         style="fill-opacity:0.2" /><polygon
         points="125.439,214.5 84.157,143 42.878,214.5 "
         id="polygon197"
         style="fill:#ffffff;fill-opacity:0" /><polygon
         points="373.121,71.5 331.843,143 290.558,71.5 "
         id="polygon199"
         style="fill:#ffffff;fill-opacity:0" /><g
         id="g201"><polygon
           points="331.843,143 373.121,71.5 414.4,143 "
           id="polygon203"
           style="fill:#ffffff;fill-opacity:0.2" /><polygon
           points="331.843,143 373.121,214.5 414.4,143 "
           id="polygon205"
           style="fill:#ffffff;fill-opacity:0.1" /><polygon
           points="290.558,214.5 331.843,143 373.121,214.5 "
           id="polygon207"
           style="fill:#ffffff;fill-opacity:0" /><polygon
           points="290.558,214.5 331.843,286 373.121,214.5 "
           id="polygon209"
           style="fill-opacity:0.1" /><polygon
           points="249.279,286 290.558,214.5 331.843,286 "
           id="polygon211"
           style="fill-opacity:0.2" /></g><polygon
         points="125.439,214.5 84.157,286 42.878,214.5 "
         id="polygon213"
         style="fill-opacity:0.2" /><polygon
         points="373.121,71.5 331.843,0 290.558,71.5 "
         id="polygon215"
         style="fill-opacity:0.2" /></g></g><g
     display="none"
     id="g217"
     style="display:none"
     transform="translate(0,-166)"><g
       display="inline"
       id="g219"
       style="display:inline"><polygon
         points="166.721,286 331.843,0 249.279,0 84.157,286 "
         id="polygon221"
         style="fill:#9f499b" /><polygon
         points="249.279,0 290.558,71.5 331.843,0 "
         id="polygon223"
         style="fill:#ffffff;fill-opacity:0.2" /><polygon
         points="208,71.5 249.279,0 290.558,71.5 "
         id="polygon225"
         style="fill:#ffffff;fill-opacity:0.1" /><polygon
         points="208,71.5 249.279,143 290.558,71.5 "
         id="polygon227"
         style="fill:#ffffff;fill-opacity:0" /><polygon
         points="166.721,143 208,214.5 249.279,143 "
         id="polygon229"
         style="fill-opacity:0.2" /><polygon
         points="125.439,214.5 166.721,143 208,214.5 "
         id="polygon231"
         style="fill-opacity:0.3" /><polygon
         points="125.439,214.5 166.721,286 208,214.5 "
         id="polygon233"
         style="fill-opacity:0.4" /><polygon
         points="84.157,286 125.439,214.5 166.721,286 "
         id="polygon235"
         style="fill-opacity:0.5" /><polygon
         points="166.721,143 208,71.5 249.279,143 "
         id="polygon237"
         style="fill-opacity:0.1" /></g><g
       display="inline"
       id="g239"
       style="display:inline"><polygon
         points="249.279,286 373.121,71.5 331.84,0 166.718,286 "
         id="polygon241"
         style="fill:#9f499b" /><polygon
         points="290.558,71.5 331.84,0 373.121,71.5 "
         id="polygon243"
         style="fill:#ffffff;fill-opacity:0.1" /><polygon
         points="290.558,71.5 331.84,143 373.121,71.5 "
         id="polygon245"
         style="fill:#ffffff;fill-opacity:0" /><polygon
         points="249.279,143 290.558,214.5 331.84,143 "
         id="polygon247"
         style="fill-opacity:0.2" /><polygon
         points="208,214.5 249.279,143 290.558,214.5 "
         id="polygon249"
         style="fill-opacity:0.3" /><polygon
         points="208,214.5 249.279,286 290.558,214.5 "
         id="polygon251"
         style="fill-opacity:0.4" /><polygon
         points="166.718,286 208,214.5 249.279,286 "
         id="polygon253"
         style="fill-opacity:0.5" /><polygon
         points="249.279,143 290.558,71.5 331.84,143 "
         id="polygon255"
         style="fill-opacity:0.1" /></g><g
       display="inline"
       id="g257"
       style="display:inline"><polygon
         points="331.843,286 414.4,143 373.121,71.5 249.279,286 "
         id="polygon259"
         style="fill:#9f499b" /><polygon
         points="331.843,143 373.121,214.5 414.4,143 "
         id="polygon261"
         style="fill-opacity:0.2" /><polygon
         points="290.558,214.5 331.843,143 373.121,214.5 "
         id="polygon263"
         style="fill-opacity:0.3" /><polygon
         points="290.558,214.5 331.843,286 373.121,214.5 "
         id="polygon265"
         style="fill-opacity:0.4" /><polygon
         points="249.279,286 290.558,214.5 331.843,286 "
         id="polygon267"
         style="fill-opacity:0.5" /><polygon
         points="331.843,143 373.121,71.5 414.4,143 "
         id="polygon269"
         style="fill-opacity:0.1" /></g><g
       display="inline"
       id="g271"
       style="display:inline"><polygon
         points="84.16,286 249.279,0 166.718,0 42.878,214.5 "
         id="polygon273"
         style="fill:#9f499b" /><polygon
         points="166.718,0 208,71.5 249.279,0 "
         id="polygon275"
         style="fill:#ffffff;fill-opacity:0.2" /><polygon
         points="125.439,71.5 166.718,0 208,71.5 "
         id="polygon277"
         style="fill:#ffffff;fill-opacity:0.1" /><polygon
         points="125.439,71.5 166.718,143 208,71.5 "
         id="polygon279"
         style="fill:#ffffff;fill-opacity:0" /><polygon
         points="84.16,143 125.439,214.5 166.718,143 "
         id="polygon281"
         style="fill-opacity:0.2" /><polygon
         points="42.878,214.5 84.16,143 125.439,214.5 "
         id="polygon283"
         style="fill-opacity:0.3" /><polygon
         points="42.878,214.5 84.16,286 125.439,214.5 "
         id="polygon285"
         style="fill-opacity:0.4" /><polygon
         points="84.16,143 125.439,71.5 166.718,143 "
         id="polygon287"
         style="fill-opacity:0.1" /></g><g
       display="inline"
       id="g289"
       style="display:inline"><polygon
         points="42.878,214.5 166.721,0 84.157,0 1.6,143 "
         id="polygon291"
         style="fill:#9f499b" /><polygon
         points="84.157,0 125.439,71.5 166.721,0 "
         id="polygon293"
         style="fill:#ffffff;fill-opacity:0.2" /><polygon
         points="42.878,71.5 84.157,0 125.439,71.5 "
         id="polygon295"
         style="fill:#ffffff;fill-opacity:0.1" /><polygon
         points="42.878,71.5 84.157,143 125.439,71.5 "
         id="polygon297"
         style="fill:#ffffff;fill-opacity:0" /><polygon
         points="1.6,143 42.878,214.5 84.157,143 "
         id="polygon299"
         style="fill-opacity:0.2" /><polygon
         points="1.6,143 42.878,71.5 84.157,143 "
         id="polygon301"
         style="fill-opacity:0.1" /></g><rect
       y="-65"
       display="inline"
       width="416"
       height="416"
       id="rect303"
       x="0"
       style="fill:none;display:inline" /></g><g
     id="logo"
     transform="scale(0.19047619,0.19047619)"><g
       transform="matrix(1.2032172,0,0,1.2032172,-4.0289644e-6,243.89044)"
       id="g3117"><path
         inkscape:connector-curvature="0"
         d="m 201.66808,111.0355 c -0.0396,1.15065 -0.11858,2.33731 -0.26899,3.59745 l 4.68374,-8.49023 -0.5154,-2.76868 4.70255,-0.7193 1.70985,11.76291 2.16317,-7.37492 c 0.17118,-0.72 0.25958,-1.25797 0.28028,-1.79801 0.017,-0.54005 -0.0339,-1.11545 -0.22196,-1.90679 l 4.92451,-0.93525 c 0.17869,1.00654 0.29344,1.87068 0.26334,2.76924 -0.0433,1.18749 -0.34046,2.48214 -1.16435,4.42415 l -3.96519,10.64834 -5.86315,0 -1.23394,-7.94952 -4.59158,7.94952 -5.68444,0 c 0.22384,-7.41019 -0.0451,-12.05029 -0.55866,-16.90648 l 4.88125,-0.75523 c 0.37244,2.69813 0.56618,5.39541 0.45897,8.4528"
         style="fill:#ffffff;fill-opacity:1;fill-rule:nonzero;stroke:none"
         id="path14" /><path
         inkscape:connector-curvature="0"
         d="m 232.19892,106.97146 c -2.27227,1.22266 -3.11497,1.69072 -5.17281,2.94938 l -2.19515,10.32357 -5.06935,0 3.57959,-17.0865 4.48623,-0.75523 -0.19187,2.37329 c 1.72678,-1.00672 3.11874,-1.72678 4.65177,-2.37329 l -0.0885,4.56878"
         style="fill:#ffffff;fill-opacity:1;fill-rule:nonzero;stroke:none"
         id="path16" /><path
         inkscape:connector-curvature="0"
         d="m 236.84692,95.387794 5.24052,-0.718738 -1.16059,5.395514 -5.20478,0.72006 1.12485,-5.396836 z m -1.63837,7.734196 5.24241,-0.71931 -3.78838,17.84173 -5.06935,0 3.61532,-17.12242"
         style="fill:#ffffff;fill-opacity:1;fill-rule:nonzero;stroke:none"
         id="path18" /><path
         inkscape:connector-curvature="0"
         d="m 249.78834,106.79148 -1.85092,8.74009 c -0.0414,0.18003 -0.0847,0.36005 -0.0885,0.46805 -0.008,0.25202 0.13168,0.36005 0.49283,0.36005 0.86339,0 1.8434,-0.36005 2.75758,-0.7201 l 0.8822,3.52545 c -1.46532,0.79063 -3.57394,1.43944 -5.62425,1.43944 -2.55255,0 -3.87679,-1.2234 -3.80343,-3.30944 0.008,-0.25275 0.0546,-0.50405 0.0978,-0.75607 l 2.06724,-9.74747 -2.58829,0 0.85963,-4.06413 2.59017,0 0.86527,-4.209539 5.23864,-0.719299 -1.03456,4.928838 4.1721,0 -1.14931,4.06413 -3.8843,0"
         style="fill:#ffffff;fill-opacity:1;fill-rule:nonzero;stroke:none"
         id="path20" /><path
         inkscape:connector-curvature="0"
         d="m 265.05659,107.29477 c 0.0206,-0.61201 -0.50411,-1.00815 -1.43898,-1.00815 -1.83588,0 -2.41147,1.04342 -2.71244,2.48283 l -0.25769,1.2234 c 0.87091,-0.21675 1.2678,-0.28803 2.32117,-0.61207 1.38255,-0.39605 2.05032,-1.04265 2.08794,-2.08601 z m -9.23017,1.68996 c 0.85774,-4.02875 2.74817,-6.61741 8.28777,-6.61741 3.30684,0 5.77474,1.43804 5.67128,4.38804 -0.11842,3.4175 -1.93557,5.00021 -6.29577,6.29415 -2.14625,0.64806 -2.18199,0.64806 -3.70561,1.04338 l -0.25959,1.22266 c -0.12986,0.6488 -0.079,1.2234 0.85587,1.2234 1.83588,0 4.5295,-0.89938 6.93909,-1.94127 l 0.84457,3.59525 c -2.16881,1.33141 -5.55089,2.41153 -8.64329,2.41153 -3.63225,0 -5.1239,-1.58271 -5.02044,-4.56884 0.0226,-0.64733 0.12234,-1.36667 0.29156,-2.12275 l 1.03456,-4.92814"
         style="fill:#ffffff;fill-opacity:1;fill-rule:nonzero;stroke:none"
         id="path22" /><path
         inkscape:connector-curvature="0"
         d="m 282.86985,95.567807 5.24053,-0.718737 -5.34586,25.39534 -5.07124,0 5.17657,-24.676603"
         style="fill:#ffffff;fill-opacity:1;fill-rule:nonzero;stroke:none"
         id="path24" /><path
         inkscape:connector-curvature="0"
         d="m 297.99514,107.29477 c 0.0226,-0.61201 -0.50223,-1.00815 -1.4371,-1.00815 -1.83588,0 -2.41335,1.04342 -2.71431,2.48283 l -0.25582,1.2234 c 0.87091,-0.21675 1.26593,-0.28803 2.32118,-0.61207 1.38067,-0.39605 2.05031,-1.04265 2.08605,-2.08601 z m -9.22829,1.68996 c 0.85775,-4.02875 2.74817,-6.61741 8.2859,-6.61741 3.30871,0 5.77661,1.43804 5.67316,4.38804 -0.11858,3.4175 -1.93558,5.00021 -6.29766,6.29415 -2.14437,0.64806 -2.1801,0.64806 -3.70373,1.04338 l -0.25958,1.22266 c -0.12987,0.6488 -0.079,1.2234 0.85586,1.2234 1.83588,0 4.52762,-0.89938 6.93721,-1.94127 l 0.84646,3.59525 c -2.1707,1.33141 -5.5509,2.41153 -8.6433,2.41153 -3.63413,0 -5.12577,-1.58271 -5.02044,-4.56884 0.0226,-0.64733 0.12039,-1.36667 0.28968,-2.12275 l 1.03644,-4.92814"
         style="fill:#ffffff;fill-opacity:1;fill-rule:nonzero;stroke:none"
         id="path26" /><path
         inkscape:connector-curvature="0"
         d="m 303.14537,119.45233 1.10228,-3.74073 c 1.31295,0.46804 2.80836,0.89935 4.71384,0.89935 1.69104,0 1.81518,-0.50332 1.98824,-1.3314 0.17117,-0.79061 -0.31789,-1.22193 -2.25911,-2.26531 -3.59839,-1.94274 -3.69809,-3.23814 -3.13754,-5.86277 0.81448,-3.77743 1.96567,-4.78415 6.82058,-4.78415 1.65342,0 3.76204,0.36003 5.18597,0.82671 l -0.96308,3.81343 c -1.28286,-0.36006 -3.17516,-0.64805 -4.39971,-0.64805 -1.51045,0 -1.7343,0.18001 -1.94685,1.11464 -0.17118,0.82808 10e-4,1.00811 1.66094,1.90673 3.95202,2.15877 4.5389,2.91411 3.93886,5.68347 -0.85775,3.9575 -2.06348,5.54021 -7.31529,5.54021 -1.61768,0 -3.86738,-0.46879 -5.38913,-1.15213"
         style="fill:#ffffff;fill-opacity:1;fill-rule:nonzero;stroke:none"
         id="path28" /><path
         inkscape:connector-curvature="0"
         d="m 317.67438,119.45233 1.10227,-3.74073 c 1.31296,0.46804 2.80837,0.89935 4.71572,0.89935 1.68916,0 1.81519,-0.50332 1.98824,-1.3314 0.17117,-0.79061 -0.31789,-1.22193 -2.25911,-2.26531 -3.60027,-1.94274 -3.69808,-3.23814 -3.13754,-5.86277 0.8126,-3.77743 1.96379,-4.78415 6.82058,-4.78415 1.65154,0 3.76204,0.36003 5.1841,0.82671 l -0.96121,3.81343 c -1.28285,-0.36006 -3.17704,-0.64805 -4.3997,-0.64805 -1.51046,0 -1.7343,0.18001 -1.94686,1.11464 -0.17117,0.82808 0.001,1.00811 1.65906,1.90673 3.95391,2.15877 4.54079,2.91411 3.93886,5.68347 -0.85775,3.9575 -2.0616,5.54021 -7.31341,5.54021 -1.61956,0 -3.86738,-0.46879 -5.391,-1.15213"
         style="fill:#ffffff;fill-opacity:1;fill-rule:nonzero;stroke:none"
         id="path30" /><path
         inkscape:connector-curvature="0"
         d="m 331.56947,124.16443 2.90806,-3.92002 -1.90735,0 1.25088,-5.97151 5.07123,0 -1.37315,6.40283 -4.16834,4.96339 -1.78133,-1.47469"
         style="fill:#ffffff;fill-opacity:1;fill-rule:nonzero;stroke:none"
         id="path32" /><path
         inkscape:connector-curvature="0"
         d="m 354.65523,114.99224 c -0.21255,0.93611 0.0245,1.36743 0.92359,1.36743 1.79827,0 3.12437,-0.93538 4.12507,-1.79873 l 1.63839,-7.80558 c -0.57184,-0.10796 -1.25278,-0.14388 -1.97133,-0.14388 -2.62589,0 -3.21467,1.40263 -3.59652,3.09335 l -1.1192,5.28742 z m 4.63484,5.25217 -0.0923,-1.51142 c -1.29413,1.04336 -3.12062,1.87147 -5.63928,1.87147 -3.81096,0 -4.66495,-2.30279 -3.84483,-6.22355 l 0.99133,-4.71209 c 0.86523,-4.1728 2.05407,-7.3015 9.42578,-7.3015 0.53984,0 1.65153,0.0713 2.11615,0.18002 l 1.46529,-6.979533 5.20294,-0.718737 -5.34399,25.39534 -4.28121,0"
         style="fill:#ffffff;fill-opacity:1;fill-rule:nonzero;stroke:none"
         id="path34" /><path
         inkscape:connector-curvature="0"
         d="m 380.19385,108.58944 c 0.0451,-1.29467 -0.72042,-1.97797 -2.37571,-1.97797 -1.90736,0 -3.05667,0.97059 -3.40279,2.6973 l -0.90663,4.3528 c -0.047,0.2513 -0.0903,0.50332 -0.0978,0.71934 -0.0433,1.25866 0.72232,1.97876 2.37764,1.97876 1.94119,0 3.05288,-0.97138 3.40086,-2.6981 l 0.90856,-4.3528 c 0.0433,-0.25128 0.0885,-0.50332 0.0958,-0.71933 z m -11.90496,6.15152 c 0.0152,-0.39605 0.0677,-0.82809 0.15423,-1.2234 l 0.86151,-4.06477 c 0.94429,-4.49681 3.2316,-7.08547 9.34491,-7.08547 4.71196,0 6.73782,2.69738 6.6306,5.8268 -0.0152,0.39532 -0.0658,0.82735 -0.15237,1.25867 l -0.85961,4.06477 c -0.90479,4.20878 -3.01905,7.0869 -9.38443,7.0869 -4.45989,0 -6.70396,-2.66283 -6.59484,-5.8635"
         style="fill:#ffffff;fill-opacity:1;fill-rule:nonzero;stroke:none"
         id="path36" /><path
         inkscape:connector-curvature="0"
         d="m 416.23797,108.33813 c 0.0434,-0.21602 0.0865,-0.39603 0.0903,-0.54006 0.0107,-0.36003 -0.16175,-0.5033 -0.66586,-0.5033 -0.93487,0 -3.162,0.93462 -4.62543,1.68996 l -2.37199,11.25968 -5.03359,0 2.50172,-11.90628 c 0.0414,-0.21602 0.0865,-0.39603 0.0884,-0.54006 0.0135,-0.36003 -0.15988,-0.5033 -0.66399,-0.5033 -0.93487,0 -3.19777,0.93462 -4.5897,1.65396 l -2.37199,11.29568 -5.07122,0 3.58334,-17.0865 4.48437,-0.75523 -0.10353,1.94197 c 2.77825,-1.29546 4.96024,-1.97733 6.97482,-1.97733 1.72489,0 2.59768,0.75467 2.94756,2.05012 2.71617,-1.54826 5.14457,-2.05012 7.15726,-2.05012 2.33812,0 3.15448,1.33064 3.07737,3.55927 -0.0224,0.61283 -0.0828,1.29615 -0.25018,2.01551 l -2.58829,12.30231 -5.07122,0 2.50176,-11.90628"
         style="fill:#ffffff;fill-opacity:1;fill-rule:nonzero;stroke:none"
         id="path38" /><path
         inkscape:connector-curvature="0"
         d="m 435.24945,108.58944 c 0.047,-1.29467 -0.72042,-1.97797 -2.37574,-1.97797 -1.90546,0 -3.05664,0.97059 -3.40086,2.6973 l -0.90855,4.3528 c -0.0452,0.2513 -0.0883,0.50332 -0.096,0.71934 -0.0451,1.25866 0.72046,1.97876 2.37574,1.97876 1.94309,0 3.05288,-0.97138 3.40276,-2.6981 l 0.90666,-4.3528 c 0.0451,-0.25128 0.0883,-0.50332 0.0958,-0.71933 z m -11.90309,6.15152 c 0.0152,-0.39605 0.0659,-0.82809 0.15234,-1.2234 l 0.86151,-4.06477 c 0.94617,-4.49681 3.23349,-7.08547 9.3468,-7.08547 4.71196,0 6.73782,2.69738 6.6287,5.8268 -0.0152,0.39532 -0.0657,0.82735 -0.15233,1.25867 l -0.85965,4.06477 c -0.9029,4.20878 -3.01715,7.0869 -9.38253,7.0869 -4.45989,0 -6.70582,-2.66283 -6.59484,-5.8635"
         style="fill:#ffffff;fill-opacity:1;fill-rule:nonzero;stroke:none"
         id="path40" /><path
         inkscape:connector-curvature="0"
         d="m 453.79256,106.97146 c -2.27228,1.22266 -3.11686,1.69072 -5.17283,2.94938 l -2.19512,10.32357 -5.07126,0 3.58334,-17.0865 4.48248,-0.75523 -0.18996,2.37329 c 1.72674,-1.00672 3.11871,-1.72678 4.64988,-2.37329 l -0.0865,4.56878"
         style="fill:#ffffff;fill-opacity:1;fill-rule:nonzero;stroke:none"
         id="path42" /><path
         inkscape:connector-curvature="0"
         d="m 464.1739,107.29477 c 0.0228,-0.61201 -0.50225,-1.00815 -1.43898,-1.00815 -1.834,0 -2.41147,1.04342 -2.71245,2.48283 l -0.25769,1.2234 c 0.87093,-0.21675 1.26781,-0.28803 2.32308,-0.61207 1.38066,-0.39605 2.05031,-1.04265 2.08604,-2.08601 z m -9.22827,1.68996 c 0.85772,-4.02875 2.74814,-6.61741 8.28589,-6.61741 3.30871,0 5.77474,1.43804 5.67314,4.38804 -0.12037,3.4175 -1.93744,5.00021 -6.29952,6.29415 -2.14436,0.64806 -2.17823,0.64806 -3.70373,1.04338 l -0.2577,1.22266 c -0.13167,0.6488 -0.079,1.2234 0.85586,1.2234 1.834,0 4.52762,-0.89938 6.93719,-1.94127 l 0.84458,3.59525 c -2.16881,1.33141 -5.55088,2.41153 -8.64139,2.41153 -3.63414,0 -5.12578,-1.58271 -5.02045,-4.56884 0.0207,-0.64733 0.12039,-1.36667 0.28966,-2.12275 l 1.03647,-4.92814"
         style="fill:#ffffff;fill-opacity:1;fill-rule:nonzero;stroke:none"
         id="path44" /><path
         inkscape:connector-curvature="0"
         d="m 470.97756,114.2729 5.07122,0 -1.25088,5.97151 -5.07122,0 1.25088,-5.97151"
         style="fill:#ffffff;fill-opacity:1;fill-rule:nonzero;stroke:none"
         id="path46" /><path
         inkscape:connector-curvature="0"
         d="m 6.1508481,17.847043 c -8.5718,12.314858 -7.5123,28.336637 -0.9537,41.422899 0.1462,0.319586 0.3152,0.621677 0.4762,0.930166 0.092,0.200703 0.1968,0.400468 0.3093,0.597411 0.049,0.107969 0.1263,0.227039 0.1896,0.332941 0.1057,0.214436 0.2174,0.410625 0.3299,0.614904 0.2108,0.354195 0.421,0.714978 0.6319,1.066915 0.119,0.196192 0.2322,0.393135 0.3652,0.590076 0.2241,0.379027 0.4842,0.753915 0.7163,1.132938 0.1051,0.16177 0.2036,0.319587 0.316,0.477594 0.3365,0.512954 0.6745,1.018383 1.0463,1.516666 0,0.01459 0.014,0.02859 0.028,0.03442 0.056,0.08465 0.119,0.165342 0.1748,0.242464 0.3159999,0.43207 0.6318999,0.853982 0.9625999,1.271194 0.1124,0.154431 0.238,0.308675 0.3512,0.459343 0.3012,0.365859 0.5966,0.730214 0.8905,1.092497 0.1132,0.129413 0.2249,0.266731 0.3446,0.400468 0.3931,0.474017 0.8075,0.944275 1.2293,1.407946 0,0.0066 0.013,0.01597 0.021,0.02707 0.014,0.01769 0.028,0.03536 0.056,0.05286 0.4071,0.445993 0.8215,0.88408 1.2433,1.319726 0.133,0.133748 0.266,0.263719 0.4137,0.404041 0.3225,0.327112 0.6458,0.657041 0.9904,0.978884 0.1404,0.134306 0.28,0.263719 0.4144,0.392946 0.449,0.421912 0.8979,0.843639 1.3682,1.246928 0.01,0.0074 0.015,0.01114 0.021,0.01693 0.077,0.06752 0.1616,0.134486 0.2322,0.200706 0.4136,0.354006 0.8288,0.70538 1.249,1.052805 0.1691,0.141077 0.3373,0.274066 0.5064,0.410815 0.3512,0.277639 0.7016,0.543617 1.0522,0.811096 0.1829,0.136759 0.3659,0.277829 0.5555,0.421726 0.379,0.283657 0.7722,0.561486 1.158,0.834797 0.1403,0.102146 0.2806,0.204279 0.4283,0.298328 0.035,0.03159 0.077,0.0602 0.1125,0.08821 0.3858,0.252622 0.7509,0.498094 1.1308,0.747894 0.1674,0.107971 0.33,0.213874 0.4915,0.321842 0.5894,0.376206 1.1787,0.737737 1.762,1.088925 0.1683,0.08821 0.3365,0.183021 0.4983,0.277073 0.4349,0.252811 0.8778,0.502608 1.3268,0.74131 0.2455,0.136758 0.4916,0.256573 0.7436,0.382224 0.3029,0.165152 0.6187,0.333506 0.942,0.498848 0.077,0.03083 0.1543,0.05944 0.2242,0.09837 0.133,0.05963 0.2592,0.126402 0.3856,0.188853 0.4925,0.242465 0.9972,0.471007 1.5175,0.702563 0.098,0.04627 0.2027,0.08728 0.3085,0.141076 0.5819,0.251866 1.1654,0.494331 1.7621,0.72946 0.1411,0.05304 0.2806,0.116245 0.4283,0.164587 0.5408,0.211615 1.1021,0.418153 1.6568,0.618105 0.07,0.02859 0.1332,0.04984 0.2037,0.07336 0.6179,0.211615 1.2285,0.410814 1.8538,0.604747 0.1469,0.04196 0.2945,0.09405 0.449,0.132983 0.6391,0.193181 1.2563,0.41815 1.9096,0.540793 41.44413,7.554929 53.48492,-24.906596 53.48492,-24.906596 -10.11632,13.167143 -28.06916,16.64628 -45.0732,12.777773 -0.63259,-0.143336 -1.25728,-0.343852 -1.8957,-0.533457 -0.14842,-0.04269 -0.31676,-0.09122 -0.46442,-0.144088 -0.61716,-0.185845 -1.22774,-0.386548 -1.8244,-0.590076 -0.085,-0.02783 -0.1757,-0.05869 -0.2601,-0.0948 -0.5401,-0.18509 -1.0735,-0.38937 -1.6078,-0.595719 -0.1476,-0.0632 -0.3019,-0.116997 -0.4497,-0.172678 -0.5899,-0.231552 -1.1719,-0.480601 -1.7407,-0.730397 -0.1262,-0.04495 -0.2321,-0.09857 -0.3519,-0.147099 -0.4974,-0.228355 -0.975,-0.452572 -1.4599,-0.68469 -0.1471,-0.06245 -0.2808,-0.133748 -0.4285,-0.207287 -0.379,-0.179262 -0.7575,-0.379027 -1.1294,-0.575219 -0.2599,-0.133731 -0.5135,-0.25657 -0.759,-0.393132 -0.4563,-0.245472 -0.9124,-0.505619 -1.3688,-0.75824 -0.1411,-0.09556 -0.2953,-0.176437 -0.4571,-0.263154 -0.5893,-0.351188 -1.1865,-0.712719 -1.7685,-1.085162 -0.1684,-0.105892 -0.3233,-0.21086 -0.4776,-0.319773 -0.4285,-0.269548 -0.8502,-0.554712 -1.2638,-0.835362 -0.1338,-0.0948 -0.2668,-0.193178 -0.4071,-0.290993 -0.4005,-0.281401 -0.7936,-0.565058 -1.1933,-0.857368 -0.1689,-0.132983 -0.3446,-0.266165 -0.5269,-0.399154 -0.3585,-0.277639 -0.7163,-0.55095 -1.0741,-0.839687 -0.1551,-0.129413 -0.3152,-0.25657 -0.471,-0.382224 -0.4629,-0.371687 -0.898,-0.745072 -1.3409,-1.130679 -0.042,-0.0457 -0.1044,-0.08465 -0.1545,-0.12284 -0.4702,-0.420971 -0.9405,-0.852292 -1.404,-1.28135 -0.1405,-0.132983 -0.2586,-0.256384 -0.3997,-0.38279 -0.3365,-0.329929 -0.6738,-0.652523 -1.0037,-0.986781 -0.1403,-0.139753 -0.2675,-0.269738 -0.4005,-0.402727 -0.4217,-0.425486 -0.8363,-0.864142 -1.2426,-1.313142 -0.021,-0.01824 -0.043,-0.03817 -0.064,-0.06301 -0.4276,-0.470255 -0.842,-0.948034 -1.2556,-1.43296 -0.1132,-0.129234 -0.2184,-0.262216 -0.3299,-0.389373 -0.3029,-0.371878 -0.6048,-0.747328 -0.9135,-1.119771 -0.098,-0.144088 -0.2108,-0.28065 -0.3231,-0.420971 -0.358,-0.460829 -0.7018,-0.919985 -1.0457,-1.394002 C 8.6926481,41.706648 5.2877481,23.941348 12.836048,9.3619327"
         style="fill:#88d6f6;fill-opacity:1;fill-rule:nonzero;stroke:none"
         id="path48" /><path
         inkscape:connector-curvature="0"
         d="m 32.760648,7.4662627 c -6.2139,8.9164103 -5.8693,20.8558133 -1.0323,30.2910113 0.8002,1.579682 1.7127,3.114592 2.7377,4.571821 0.9273,1.333455 1.9523,2.913324 3.1949,3.983811 0.4349,0.4917 0.9051,0.969293 1.3901,1.449704 0.1198,0.119077 0.2396,0.235881 0.3653,0.361531 0.4636,0.445237 0.9339,0.884646 1.4181,1.31239 0.015,0.01824 0.042,0.03593 0.057,0.05362 0.01,0.0036 0.014,0.01038 0.014,0.01038 0.54,0.477594 1.0881,0.930166 1.657,1.372392 0.133,0.0948 0.2526,0.200707 0.3856,0.295511 0.5622,0.438653 1.1382,0.858872 1.7202,1.273263 0.021,0.0074 0.035,0.02145 0.064,0.03235 0.2521,0.182269 0.5188,0.351184 0.7929,0.526121 0.11886,0.07712 0.24526,0.16835 0.36508,0.242462 0.42756,0.277828 0.84947,0.536468 1.28436,0.793603 0.064,0.03159 0.12641,0.06602 0.18961,0.09763 0.36511,0.221209 0.75091,0.438653 1.13821,0.635597 0.13299,0.08088 0.26598,0.144087 0.39971,0.217633 0.26673,0.132982 0.53346,0.274066 0.79285,0.410628 0.0352,0.01842 0.0852,0.03818 0.12698,0.05661 0.54738,0.2703 1.10228,0.519538 1.64965,0.769335 0.13299,0.05211 0.24604,0.09763 0.3717,0.150671 0.4505,0.192429 0.90608,0.382786 1.35565,0.554712 0.20296,0.06679 0.39313,0.146164 0.58274,0.213684 0.41363,0.147095 0.83536,0.290993 1.24994,0.427745 0.20277,0.06752 0.3856,0.123395 0.56863,0.183024 0.58932,0.186598 1.18673,0.425296 1.81123,0.522359 31.9877,5.305041 39.38744,-19.335577 39.38744,-19.335577 -6.66276,9.598285 -19.56111,14.1686 -33.32115,10.595413 -0.61791,-0.158003 -1.22115,-0.334254 -1.81198,-0.526873 -0.18961,-0.04853 -0.35702,-0.108724 -0.54004,-0.171923 -0.42831,-0.136562 -0.85756,-0.281402 -1.2712,-0.434894 -0.18961,-0.06978 -0.38579,-0.141077 -0.57521,-0.214623 -0.45634,-0.17851 -0.91268,-0.354198 -1.35565,-0.551139 -0.13299,-0.05287 -0.2594,-0.09763 -0.36455,-0.154244 -0.56863,-0.246227 -1.13087,-0.509947 -1.67825,-0.772159 -0.28064,-0.144088 -0.55471,-0.284413 -0.83535,-0.431318 -0.16836,-0.08465 -0.32994,-0.165342 -0.4776,-0.242464 -0.37263,-0.193368 -0.71648,-0.396895 -1.06766,-0.603996 -0.083,-0.0457 -0.16835,-0.08821 -0.25281,-0.137497 -0.42756,-0.259391 -0.87073,-0.518782 -1.27703,-0.789837 -0.14107,-0.08013 -0.26014,-0.171927 -0.39313,-0.255633 -0.2814,-0.178696 -0.55472,-0.357958 -0.84345,-0.551139 -0.58199,-0.40423 -1.15062,-0.831785 -1.71944,-1.260847 -0.13375,-0.107972 -0.25996,-0.206535 -0.38636,-0.312251 -6.03842,-4.753339 -10.81232,-11.253959 -13.07232,-18.615519 -2.3874,-7.646158 -1.8613,-16.2290683 2.2534,-23.19015829"
         style="fill:#88d6f6;fill-opacity:1;fill-rule:nonzero;stroke:none"
         id="path50" /><path
         inkscape:connector-curvature="0"
         d="m 55.129418,-0.28786729 c -3.66498,5.37707999 -4.01636,12.05847029 -1.48939,17.99102029 2.68271,6.304989 8.16551,11.250757 14.55515,13.591687 0.25939,0.102132 0.51953,0.186783 0.78626,0.277825 0.11964,0.03461 0.23137,0.07356 0.35852,0.111734 0.3717,0.116052 0.74357,0.256384 1.12937,0.330685 17.67125,3.412169 22.46052,-9.068025 23.74488,-10.904091 -4.20503,6.045601 -11.26111,7.49474 -19.91813,5.392512 -0.6813,-0.165342 -1.42562,-0.410814 -2.0853,-0.649516 -0.84213,-0.298332 -1.6775,-0.645944 -2.49235,-1.02873 -1.52325,-0.739995 -2.99797,-1.631976 -4.36021,-2.664276 -7.75112,-5.87593 -12.5528,-17.0849403 -7.49831,-26.2159703"
         style="fill:#88d6f6;fill-opacity:1;fill-rule:nonzero;stroke:none"
         id="path52" /><path
         inkscape:connector-curvature="0"
         d="m 464.60276,24.904637 0.6941,2.927999 c 0.19562,0.838369 -0.3367,1.516665 -1.19445,1.516665"
         style="fill:#ffffff;fill-opacity:1;fill-rule:nonzero;stroke:none"
         id="path54" /><path
         inkscape:connector-curvature="0"
         d="m 408.85498,19.877233 c -0.17496,0.81129 -0.38561,1.83625 -0.52481,2.514362 l -6.1152,28.62029 6.43122,-30.151442 0.20879,-0.98321"
         style="fill:#ffffff;fill-opacity:1;fill-rule:nonzero;stroke:none"
         id="path56" /><path
         inkscape:connector-curvature="0"
         d="m 225.65297,39.030537 -3.37831,11.959904 3.37831,-11.956142 0,-0.0038"
         style="fill:#ffffff;fill-opacity:1;fill-rule:nonzero;stroke:none"
         id="path58" /><path
         inkscape:connector-curvature="0"
         d="m 465.29686,27.832636 -1.76251,-7.452793 c -1.39007,-5.39251 -5.32891,-7.94073 -14.18102,-7.94073 l -37.23292,0 c -0.85775,0 -1.71361,0.38655 -1.88853,1.22492 l -14.1246,66.991419 c -0.18434,0.84646 -0.23887,1.449139 -0.14296,1.867854 0.0996,0.43207 1.75689,0.351188 2.60523,0.351188 l 12.89814,0 c 0.8634,0 2.4303,0.06395 2.88551,-0.119635 0.47776,-0.196189 0.68845,-1.473215 0.86337,-2.318357 l 4.55773,-23.48849 5.56781,-26.054206 c 0.18058,-0.835548 1.02326,-1.520242 1.88102,-1.520242 l 36.87928,-0.02428 c 0.85023,0 1.39007,-0.681118 1.19445,-1.516666"
         style="fill:#ffffff;fill-opacity:1;fill-rule:nonzero;stroke:none"
         id="path60" /><path
         inkscape:connector-curvature="0"
         d="m 517.76042,0.67540271 c -0.86341,0.0103 -16.3555,0 -16.3555,0 -0.85585,0 -1.95812,0.91999999 -2.43588,1.62895999 L 470.259,44.542116 c -0.48907,0.709142 -1.04395,0.684125 -1.23395,-0.150672 l -2.1218,-9.257253 c -0.18058,-0.839125 -1.03644,-1.52325 -1.90733,-1.52325 l -18.45281,0 c -0.84834,0 -1.36187,0.708957 -1.13614,1.537169 l 8.27085,28.998565 c 0.23886,0.830282 0.25955,2.185934 0.0469,3.016216 l -3.8561,14.688137 c -0.20503,0.832541 0.32167,1.083844 1.19259,1.083844 l 18.21954,0 c 0.85589,0 1.74185,-0.24773 1.95065,-1.083844 l 3.85983,-14.893921 c 0.21068,-0.830281 0.80698,-1.959647 1.31861,-2.652425 L 523.26426,2.1670427 c 0.52667,-0.68036 0.45145,-1.49596999 -0.40444,-1.49596999 l -5.09943,0.004"
         style="fill:#ffffff;fill-opacity:1;fill-rule:nonzero;stroke:none"
         id="path62" /><path
         inkscape:connector-curvature="0"
         d="m 325.64426,12.495733 -16.65456,0 c -0.84834,0 -1.71925,0.29908 -1.88854,1.14103 l -5.50387,25.754553 -5.48317,24.659803 c -0.17494,0.836114 -1.02516,0.778933 -1.8829,0.778933 l -10.94378,0 c -10.82715,0 -9.57816,-6.840899 -7.35103,-17.094529 0.0263,-0.101381 6.94285,-34.09876 6.94285,-34.09876 0.15424,-0.83837 -0.40819,-1.14103 -1.25653,-1.14103 l -15.8664,0 c -0.85587,0 -1.70797,0.30266 -1.8735,1.14103 l -6.38418,34.074495 c -3.18269,18.422903 -3.27862,34.63429 18.08601,35.168503 0.35175,0.0131 33.7361,0 33.7361,0 0.86339,0 1.71173,-0.282906 1.89607,-1.113191 l 7.24381,-34.171371 7.21748,-34.313196 c 0,0 0.25582,-0.78627 -0.0339,-0.78627"
         style="fill:#ffffff;fill-opacity:1;fill-rule:nonzero;stroke:none"
         id="path64" /><path
         inkscape:connector-curvature="0"
         d="m 159.76852,12.439113 -17.85427,0 c -0.8568,0 -1.72,0.20353 -1.90961,1.04641 l -3.22275,13.940057 c -0.18302,0.825206 0.3651,1.484313 1.2285,1.484313 l 17.09603,0 c 0.86414,0 1.72,-0.778929 1.90302,-1.610718 l 3.10293,-14.045202 c 0,0 0.24774,-0.81486 -0.34385,-0.81486"
         style="fill:#ffffff;fill-opacity:1;fill-rule:nonzero;stroke:none"
         id="path66" /><path
         inkscape:connector-curvature="0"
         d="m 136.85243,33.610941 c -0.84947,0 -1.72019,0.677355 -1.90303,1.515724 l -2.40789,10.633788 -5.37126,24.554653 c 0,0 -2.85746,13.053153 -3.13077,13.871023 0,0 -2.40639,9.424853 -8.15535,9.04658 -2.67444,-0.17644 -5.73185,-0.789841 -5.73185,-0.789841 l -0.007,0 c -1.60771,-0.485115 -1.72095,1.182974 -1.91713,2.01683 l -3.54517,15.298022 c -0.20427,0.83764 0.34461,1.59078 1.19389,1.6018 0,0 7.68717,1.08381 13.11504,1.08381 l 0.89123,0 c 13.40961,0 20.49353,-7.88406 25.02208,-29.29327 l 5.30787,-24.780187 4.97812,-23.05642 c 0.18303,-0.839125 -0.32334,-1.618054 -1.17921,-1.618054"
         style="fill:#ffffff;fill-opacity:1;fill-rule:nonzero;stroke:none"
         id="path68" /><path
         inkscape:connector-curvature="0"
         d="m 375.70009,41.809557 c 0,0.930163 -2.94003,0.75316 -2.94003,0.75316 L 349.347,42.39286 c -0.80884,0 -1.04019,-1.134442 -1.09665,-1.944786 0,-0.02804 0.0582,-0.972866 0.12792,-1.20724 1.80955,-6.277906 7.20996,-9.864449 15.76861,-9.864449 9.63082,0 11.68865,4.77836 11.68865,10.074561 m -8.05265,-27.114723 c -30.03425,0 -37.20282,18.563415 -41.19059,36.962053 -3.98964,18.759606 -3.64918,33.587313 27.42715,33.587313 l 1.1211,0 c 12.33009,0 27.30865,0 27.30865,0 0.84082,-0.01459 1.68353,-0.786265 1.8528,-1.618806 l 3.05478,-11.899522 c 0.17682,-0.842887 -0.39313,-1.09118 -1.24147,-1.09118 l -27.95009,0 c -10.12365,0 -13.74837,-3.11911 -13.39473,-10.121585 -0.008,-0.797177 0.90476,-2.825104 1.76065,-2.825104 l 43.05277,0 c 1.89043,-0.01114 1.95064,-1.116949 1.95064,-1.116949 4.38278,-19.780815 4.66868,-41.87622 -23.75166,-41.87622"
         style="fill:#ffffff;fill-opacity:1;fill-rule:nonzero;stroke:none"
         id="path70" /><path
         inkscape:connector-curvature="0"
         d="m 222.11477,50.990441 -3.46108,11.829928 c -0.23889,0.830282 -1.21514,1.383677 -2.07288,1.383677 l -17.85465,0 c -13.54919,0 -16.84248,-10.471266 -13.54919,-26.09634 3.30703,-15.972493 9.85863,-25.854433 23.18377,-26.855143 18.21957,-1.3725803 21.94775,11.493228 17.53112,26.282749 l -3.77709,13.455129 z m 15.86641,12.535308 c 0,0 8.41192,-20.433337 10.31927,-32.242573 2.61274,-15.804333 -5.29319,-38.7232533 -35.86165,-38.7232533 -30.38525,0 -43.57159,21.8807803 -48.61949,45.6704263 -5.02646,23.961759 1.55485,44.824159 31.77307,44.65524 l 46.12262,-0.02804 c 0.85022,-0.0036 1.73618,-0.690522 1.95438,-1.509892 l 3.88807,-14.8057 c 0.21068,-0.835362 -0.31601,-1.513659 -1.1794,-1.517232 l -3.71501,-0.02728 -3.71314,-0.01693 c -0.72983,-0.0074 -1.15118,-0.481163 -1.05337,-1.109425 0.0136,-0.113796 0.0283,-0.227793 0.0847,-0.345356"
         style="fill:#ffffff;fill-opacity:1;fill-rule:nonzero;stroke:none"
         id="path72" /></g></g></svg>