<?xml version="1.0" encoding="UTF-8" standalone="no"?>
<!-- Generator: Adobe Illustrator 16.0.0, SVG Export Plug-In . SVG Version: 6.00 Build 0)  -->

<svg
   xmlns:dc="http://purl.org/dc/elements/1.1/"
   xmlns:cc="http://creativecommons.org/ns#"
   xmlns:rdf="http://www.w3.org/1999/02/22-rdf-syntax-ns#"
   xmlns:svg="http://www.w3.org/2000/svg"
   xmlns="http://www.w3.org/2000/svg"
   xmlns:sodipodi="http://sodipodi.sourceforge.net/DTD/sodipodi-0.dtd"
   xmlns:inkscape="http://www.inkscape.org/namespaces/inkscape"
   version="1.1"
   id="Layer_1"
   x="0px"
   y="0px"
   width="120"
   height="120"
   viewBox="0 0 120 120"
   enable-background="new 0 0 416 286"
   xml:space="preserve"
   inkscape:version="0.48.4 r9939"
   sodipodi:docname="html5.svg"><metadata
     id="metadata309"><rdf:RDF><cc:Work
         rdf:about=""><dc:format>image/svg+xml</dc:format><dc:type
           rdf:resource="http://purl.org/dc/dcmitype/StillImage" /></cc:Work></rdf:RDF></metadata><defs
     id="defs307" /><sodipodi:namedview
     pagecolor="#ffffff"
     bordercolor="#666666"
     borderopacity="1"
     objecttolerance="10"
     gridtolerance="10"
     guidetolerance="10"
     inkscape:pageopacity="0"
     inkscape:pageshadow="2"
     inkscape:window-width="1268"
     inkscape:window-height="695"
     id="namedview305"
     showgrid="false"
     inkscape:zoom="1"
     inkscape:cx="-220"
     inkscape:cy="143"
     inkscape:window-x="415"
     inkscape:window-y="200"
     inkscape:window-maximized="0"
     inkscape:current-layer="Layer_1" /><g
     display="none"
     id="g65"
     style="display:none"
     transform="translate(0,-166)"><g
       display="inline"
       id="g67"
       style="display:inline"><polygon
         points="84.157,286 166.721,286 84.157,143 42.878,214.5 "
         id="polygon69"
         style="fill:#303f9f" /><polygon
         points="331.842,143 373.121,71.5 331.842,0 249.278,0 "
         id="polygon71"
         style="fill:#3f51b5" /><polygon
         points="331.842,286 414.4,143 373.121,71.5 249.278,286 "
         id="polygon73"
         style="fill:#7986cb" /><polygon
         points="42.878,214.5 166.721,0 84.157,0 1.596,143 "
         id="polygon75"
         style="fill:#536dfe" /><polygon
         points="249.278,0 290.561,71.5 331.842,0 "
         id="polygon77"
         style="fill-opacity:0.5" /><polygon
         points="84.157,286 125.438,214.5 166.721,286 "
         id="polygon79"
         style="fill-opacity:0.5" /><polygon
         points="84.157,0 125.438,71.5 166.721,0 "
         id="polygon81"
         style="fill:#ffffff;fill-opacity:0.2" /><polygon
         points="42.878,71.5 84.157,0 125.438,71.5 "
         id="polygon83"
         style="fill:#ffffff;fill-opacity:0.1" /><polygon
         points="42.878,71.5 84.157,143 125.438,71.5 "
         id="polygon85"
         style="fill:#ffffff;fill-opacity:0" /><polygon
         points="1.598,143 42.878,71.5 84.157,143 "
         id="polygon87"
         style="fill-opacity:0.1" /><polygon
         points="1.598,143 42.878,214.5 84.157,143 "
         id="polygon89"
         style="fill-opacity:0.2" /><polygon
         points="125.438,214.5 84.157,143 42.878,214.5 "
         id="polygon91"
         style="fill:#ffffff;fill-opacity:0" /><polygon
         points="373.121,71.5 331.842,143 290.561,71.5 "
         id="polygon93"
         style="fill:#ffffff;fill-opacity:0" /><g
         id="g95"><polygon
           points="331.842,143 373.121,71.5 414.4,143 "
           id="polygon97"
           style="fill:#ffffff;fill-opacity:0.2" /><polygon
           points="331.842,143 373.121,214.5 414.4,143 "
           id="polygon99"
           style="fill:#ffffff;fill-opacity:0.1" /><polygon
           points="290.561,214.5 331.842,143 373.121,214.5 "
           id="polygon101"
           style="fill:#ffffff;fill-opacity:0" /><polygon
           points="290.561,214.5 331.842,286 373.121,214.5 "
           id="polygon103"
           style="fill-opacity:0.1" /><polygon
           points="249.278,286 290.561,214.5 331.842,286 "
           id="polygon105"
           style="fill-opacity:0.2" /></g><polygon
         points="125.438,214.5 84.157,286 42.878,214.5 "
         id="polygon107"
         style="fill-opacity:0.2" /><polygon
         points="373.121,71.5 331.842,0 290.561,71.5 "
         id="polygon109"
         style="fill-opacity:0.2" /></g><rect
       y="-65"
       display="inline"
       width="416"
       height="416"
       id="rect111"
       x="0"
       style="fill:none;display:inline" /></g><g
     display="none"
     id="g113"
     style="display:none"
     transform="translate(0,-166)"><g
       display="inline"
       id="g115"
       style="display:inline"><polygon
         points="166.721,286 331.843,0 249.279,0 84.157,286 "
         id="polygon117"
         style="fill:#ff4081" /><polygon
         points="249.279,0 290.558,71.5 331.843,0 "
         id="polygon119"
         style="fill:#ffffff;fill-opacity:0.2" /><polygon
         points="208,71.5 249.279,0 290.558,71.5 "
         id="polygon121"
         style="fill:#ffffff;fill-opacity:0.1" /><polygon
         points="208,71.5 249.279,143 290.558,71.5 "
         id="polygon123"
         style="fill:#ffffff;fill-opacity:0" /><polygon
         points="166.721,143 208,214.5 249.279,143 "
         id="polygon125"
         style="fill-opacity:0.2" /><polygon
         points="125.439,214.5 166.721,143 208,214.5 "
         id="polygon127"
         style="fill-opacity:0.3" /><polygon
         points="125.439,214.5 166.721,286 208,214.5 "
         id="polygon129"
         style="fill-opacity:0.4" /><polygon
         points="84.157,286 125.439,214.5 166.721,286 "
         id="polygon131"
         style="fill-opacity:0.5" /><polygon
         points="166.721,143 208,71.5 249.279,143 "
         id="polygon133"
         style="fill-opacity:0.1" /></g><g
       display="inline"
       id="g135"
       style="display:inline"><polygon
         points="249.279,286 373.121,71.5 331.84,0 166.718,286 "
         id="polygon137"
         style="fill:#ff4081" /><polygon
         points="290.558,71.5 331.84,0 373.121,71.5 "
         id="polygon139"
         style="fill:#ffffff;fill-opacity:0.1" /><polygon
         points="290.558,71.5 331.84,143 373.121,71.5 "
         id="polygon141"
         style="fill:#ffffff;fill-opacity:0" /><polygon
         points="249.279,143 290.558,214.5 331.84,143 "
         id="polygon143"
         style="fill-opacity:0.2" /><polygon
         points="208,214.5 249.279,143 290.558,214.5 "
         id="polygon145"
         style="fill-opacity:0.3" /><polygon
         points="208,214.5 249.279,286 290.558,214.5 "
         id="polygon147"
         style="fill-opacity:0.4" /><polygon
         points="166.718,286 208,214.5 249.279,286 "
         id="polygon149"
         style="fill-opacity:0.5" /><polygon
         points="249.279,143 290.558,71.5 331.84,143 "
         id="polygon151"
         style="fill-opacity:0.1" /></g><g
       display="inline"
       id="g153"
       style="display:inline"><polygon
         points="84.16,286 249.279,0 166.718,0 42.878,214.5 "
         id="polygon155"
         style="fill:#ff4081" /><polygon
         points="166.718,0 208,71.5 249.279,0 "
         id="polygon157"
         style="fill:#ffffff;fill-opacity:0.2" /><polygon
         points="125.439,71.5 166.718,0 208,71.5 "
         id="polygon159"
         style="fill:#ffffff;fill-opacity:0.1" /><polygon
         points="125.439,71.5 166.718,143 208,71.5 "
         id="polygon161"
         style="fill:#ffffff;fill-opacity:0" /><polygon
         points="84.16,143 125.439,214.5 166.718,143 "
         id="polygon163"
         style="fill-opacity:0.2" /><polygon
         points="42.878,214.5 84.16,143 125.439,214.5 "
         id="polygon165"
         style="fill-opacity:0.3" /><polygon
         points="42.878,214.5 84.16,286 125.439,214.5 "
         id="polygon167"
         style="fill-opacity:0.4" /><polygon
         points="84.16,143 125.439,71.5 166.718,143 "
         id="polygon169"
         style="fill-opacity:0.1" /></g><rect
       y="-65"
       display="inline"
       width="416"
       height="416"
       id="rect171"
       x="0"
       style="fill:none;display:inline" /><g
       display="inline"
       id="g173"
       style="display:inline"><polygon
         points="84.157,286 166.721,286 84.157,143 42.878,214.5 "
         id="polygon175"
         style="fill:#303f9f" /><polygon
         points="331.843,143 373.121,71.5 331.843,0 249.279,0 "
         id="polygon177"
         style="fill:#3f51b5" /><polygon
         points="331.843,286 414.4,143 373.121,71.5 249.279,286 "
         id="polygon179"
         style="fill:#7986cb" /><polygon
         points="42.878,214.5 166.721,0 84.157,0 1.597,143 "
         id="polygon181"
         style="fill:#536dfe" /><polygon
         points="249.279,0 290.558,71.5 331.843,0 "
         id="polygon183"
         style="fill-opacity:0.5" /><polygon
         points="84.157,286 125.439,214.5 166.721,286 "
         id="polygon185"
         style="fill-opacity:0.5" /><polygon
         points="84.157,0 125.439,71.5 166.721,0 "
         id="polygon187"
         style="fill:#ffffff;fill-opacity:0.2" /><polygon
         points="42.878,71.5 84.157,0 125.439,71.5 "
         id="polygon189"
         style="fill:#ffffff;fill-opacity:0.1" /><polygon
         points="42.878,71.5 84.157,143 125.439,71.5 "
         id="polygon191"
         style="fill:#ffffff;fill-opacity:0" /><polygon
         points="1.6,143 42.878,71.5 84.157,143 "
         id="polygon193"
         style="fill-opacity:0.1" /><polygon
         points="1.6,143 42.878,214.5 84.157,143 "
         id="polygon195"
         style="fill-opacity:0.2" /><polygon
         points="125.439,214.5 84.157,143 42.878,214.5 "
         id="polygon197"
         style="fill:#ffffff;fill-opacity:0" /><polygon
         points="373.121,71.5 331.843,143 290.558,71.5 "
         id="polygon199"
         style="fill:#ffffff;fill-opacity:0" /><g
         id="g201"><polygon
           points="331.843,143 373.121,71.5 414.4,143 "
           id="polygon203"
           style="fill:#ffffff;fill-opacity:0.2" /><polygon
           points="331.843,143 373.121,214.5 414.4,143 "
           id="polygon205"
           style="fill:#ffffff;fill-opacity:0.1" /><polygon
           points="290.558,214.5 331.843,143 373.121,214.5 "
           id="polygon207"
           style="fill:#ffffff;fill-opacity:0" /><polygon
           points="290.558,214.5 331.843,286 373.121,214.5 "
           id="polygon209"
           style="fill-opacity:0.1" /><polygon
           points="249.279,286 290.558,214.5 331.843,286 "
           id="polygon211"
           style="fill-opacity:0.2" /></g><polygon
         points="125.439,214.5 84.157,286 42.878,214.5 "
         id="polygon213"
         style="fill-opacity:0.2" /><polygon
         points="373.121,71.5 331.843,0 290.558,71.5 "
         id="polygon215"
         style="fill-opacity:0.2" /></g></g><g
     display="none"
     id="g217"
     style="display:none"
     transform="translate(0,-166)"><g
       display="inline"
       id="g219"
       style="display:inline"><polygon
         points="166.721,286 331.843,0 249.279,0 84.157,286 "
         id="polygon221"
         style="fill:#9f499b" /><polygon
         points="249.279,0 290.558,71.5 331.843,0 "
         id="polygon223"
         style="fill:#ffffff;fill-opacity:0.2" /><polygon
         points="208,71.5 249.279,0 290.558,71.5 "
         id="polygon225"
         style="fill:#ffffff;fill-opacity:0.1" /><polygon
         points="208,71.5 249.279,143 290.558,71.5 "
         id="polygon227"
         style="fill:#ffffff;fill-opacity:0" /><polygon
         points="166.721,143 208,214.5 249.279,143 "
         id="polygon229"
         style="fill-opacity:0.2" /><polygon
         points="125.439,214.5 166.721,143 208,214.5 "
         id="polygon231"
         style="fill-opacity:0.3" /><polygon
         points="125.439,214.5 166.721,286 208,214.5 "
         id="polygon233"
         style="fill-opacity:0.4" /><polygon
         points="84.157,286 125.439,214.5 166.721,286 "
         id="polygon235"
         style="fill-opacity:0.5" /><polygon
         points="166.721,143 208,71.5 249.279,143 "
         id="polygon237"
         style="fill-opacity:0.1" /></g><g
       display="inline"
       id="g239"
       style="display:inline"><polygon
         points="249.279,286 373.121,71.5 331.84,0 166.718,286 "
         id="polygon241"
         style="fill:#9f499b" /><polygon
         points="290.558,71.5 331.84,0 373.121,71.5 "
         id="polygon243"
         style="fill:#ffffff;fill-opacity:0.1" /><polygon
         points="290.558,71.5 331.84,143 373.121,71.5 "
         id="polygon245"
         style="fill:#ffffff;fill-opacity:0" /><polygon
         points="249.279,143 290.558,214.5 331.84,143 "
         id="polygon247"
         style="fill-opacity:0.2" /><polygon
         points="208,214.5 249.279,143 290.558,214.5 "
         id="polygon249"
         style="fill-opacity:0.3" /><polygon
         points="208,214.5 249.279,286 290.558,214.5 "
         id="polygon251"
         style="fill-opacity:0.4" /><polygon
         points="166.718,286 208,214.5 249.279,286 "
         id="polygon253"
         style="fill-opacity:0.5" /><polygon
         points="249.279,143 290.558,71.5 331.84,143 "
         id="polygon255"
         style="fill-opacity:0.1" /></g><g
       display="inline"
       id="g257"
       style="display:inline"><polygon
         points="331.843,286 414.4,143 373.121,71.5 249.279,286 "
         id="polygon259"
         style="fill:#9f499b" /><polygon
         points="331.843,143 373.121,214.5 414.4,143 "
         id="polygon261"
         style="fill-opacity:0.2" /><polygon
         points="290.558,214.5 331.843,143 373.121,214.5 "
         id="polygon263"
         style="fill-opacity:0.3" /><polygon
         points="290.558,214.5 331.843,286 373.121,214.5 "
         id="polygon265"
         style="fill-opacity:0.4" /><polygon
         points="249.279,286 290.558,214.5 331.843,286 "
         id="polygon267"
         style="fill-opacity:0.5" /><polygon
         points="331.843,143 373.121,71.5 414.4,143 "
         id="polygon269"
         style="fill-opacity:0.1" /></g><g
       display="inline"
       id="g271"
       style="display:inline"><polygon
         points="84.16,286 249.279,0 166.718,0 42.878,214.5 "
         id="polygon273"
         style="fill:#9f499b" /><polygon
         points="166.718,0 208,71.5 249.279,0 "
         id="polygon275"
         style="fill:#ffffff;fill-opacity:0.2" /><polygon
         points="125.439,71.5 166.718,0 208,71.5 "
         id="polygon277"
         style="fill:#ffffff;fill-opacity:0.1" /><polygon
         points="125.439,71.5 166.718,143 208,71.5 "
         id="polygon279"
         style="fill:#ffffff;fill-opacity:0" /><polygon
         points="84.16,143 125.439,214.5 166.718,143 "
         id="polygon281"
         style="fill-opacity:0.2" /><polygon
         points="42.878,214.5 84.16,143 125.439,214.5 "
         id="polygon283"
         style="fill-opacity:0.3" /><polygon
         points="42.878,214.5 84.16,286 125.439,214.5 "
         id="polygon285"
         style="fill-opacity:0.4" /><polygon
         points="84.16,143 125.439,71.5 166.718,143 "
         id="polygon287"
         style="fill-opacity:0.1" /></g><g
       display="inline"
       id="g289"
       style="display:inline"><polygon
         points="42.878,214.5 166.721,0 84.157,0 1.6,143 "
         id="polygon291"
         style="fill:#9f499b" /><polygon
         points="84.157,0 125.439,71.5 166.721,0 "
         id="polygon293"
         style="fill:#ffffff;fill-opacity:0.2" /><polygon
         points="42.878,71.5 84.157,0 125.439,71.5 "
         id="polygon295"
         style="fill:#ffffff;fill-opacity:0.1" /><polygon
         points="42.878,71.5 84.157,143 125.439,71.5 "
         id="polygon297"
         style="fill:#ffffff;fill-opacity:0" /><polygon
         points="1.6,143 42.878,214.5 84.157,143 "
         id="polygon299"
         style="fill-opacity:0.2" /><polygon
         points="1.6,143 42.878,71.5 84.157,143 "
         id="polygon301"
         style="fill-opacity:0.1" /></g><rect
       y="-65"
       display="inline"
       width="416"
       height="416"
       id="rect303"
       x="0"
       style="fill:none;display:inline" /></g><g
     id="g3122"
     transform="matrix(1.2445914,0,0,1.2445914,-14.675484,-29.350967)"><polygon
       transform="scale(0.234375,0.234375)"
       style="fill:#e44d26"
       id="polygon6"
       points="107.644,470.877 74.633,100.62 437.367,100.62 404.321,470.819 255.778,512 " /><polygon
       transform="scale(0.234375,0.234375)"
       style="fill:#f16529"
       id="polygon8"
       points="256,480.523 376.03,447.246 404.27,130.894 256,130.894 " /><polygon
       transform="scale(0.234375,0.234375)"
       style="fill:#ebebeb"
       id="polygon10"
       points="256,268.217 195.91,268.217 191.76,221.716 256,221.716 256,176.305 255.843,176.305 142.132,176.305 143.219,188.488 154.38,313.627 256,313.627 " /><polygon
       transform="scale(0.234375,0.234375)"
       style="fill:#ebebeb"
       id="polygon12"
       points="205.227,372.55 201.994,336.333 177.419,336.333 156.409,336.333 162.771,407.634 255.791,433.457 256,433.399 256,386.153 255.801,386.206 " /><polygon
       transform="scale(0.234375,0.234375)"
       style="fill:#ffffff"
       id="polygon22"
       points="361.399,268.217 349.162,268.217 255.843,268.217 255.843,313.627 311.761,313.627 306.49,372.521 255.843,386.191 255.843,433.435 348.937,407.634 349.62,399.962 360.291,280.411 " /><polygon
       transform="scale(0.234375,0.234375)"
       style="fill:#ffffff"
       id="polygon24"
       points="255.843,176.305 255.843,204.509 255.843,221.605 255.843,221.716 365.385,221.716 365.385,221.716 365.531,221.716 366.442,211.509 368.511,188.488 369.597,176.305 " /></g></svg>