<?xml version="1.0" encoding="UTF-8" standalone="no"?>
<!-- Generator: Adobe Illustrator 16.0.0, SVG Export Plug-In . SVG Version: 6.00 Build 0)  -->

<svg
   xmlns:dc="http://purl.org/dc/elements/1.1/"
   xmlns:cc="http://creativecommons.org/ns#"
   xmlns:rdf="http://www.w3.org/1999/02/22-rdf-syntax-ns#"
   xmlns:svg="http://www.w3.org/2000/svg"
   xmlns="http://www.w3.org/2000/svg"
   xmlns:sodipodi="http://sodipodi.sourceforge.net/DTD/sodipodi-0.dtd"
   xmlns:inkscape="http://www.inkscape.org/namespaces/inkscape"
   version="1.1"
   id="Layer_1"
   x="0px"
   y="0px"
   width="120"
   height="120"
   viewBox="0 0 120 120"
   enable-background="new 0 0 416 286"
   xml:space="preserve"
   inkscape:version="0.48.4 r9939"
   sodipodi:docname="node.js.svg"><metadata
     id="metadata309"><rdf:RDF><cc:Work
         rdf:about=""><dc:format>image/svg+xml</dc:format><dc:type
           rdf:resource="http://purl.org/dc/dcmitype/StillImage" /></cc:Work></rdf:RDF></metadata><defs
     id="defs307" /><sodipodi:namedview
     pagecolor="#ffffff"
     bordercolor="#666666"
     borderopacity="1"
     objecttolerance="10"
     gridtolerance="10"
     guidetolerance="10"
     inkscape:pageopacity="0"
     inkscape:pageshadow="2"
     inkscape:window-width="1268"
     inkscape:window-height="695"
     id="namedview305"
     showgrid="false"
     inkscape:zoom="1"
     inkscape:cx="81"
     inkscape:cy="143"
     inkscape:window-x="308"
     inkscape:window-y="138"
     inkscape:window-maximized="0"
     inkscape:current-layer="Layer_1" /><g
     display="none"
     id="g65"
     style="display:none"
     transform="translate(0,-166)"><g
       display="inline"
       id="g67"
       style="display:inline"><polygon
         points="84.157,286 166.721,286 84.157,143 42.878,214.5 "
         id="polygon69"
         style="fill:#303f9f" /><polygon
         points="331.842,143 373.121,71.5 331.842,0 249.278,0 "
         id="polygon71"
         style="fill:#3f51b5" /><polygon
         points="331.842,286 414.4,143 373.121,71.5 249.278,286 "
         id="polygon73"
         style="fill:#7986cb" /><polygon
         points="42.878,214.5 166.721,0 84.157,0 1.596,143 "
         id="polygon75"
         style="fill:#536dfe" /><polygon
         points="249.278,0 290.561,71.5 331.842,0 "
         id="polygon77"
         style="fill-opacity:0.5" /><polygon
         points="84.157,286 125.438,214.5 166.721,286 "
         id="polygon79"
         style="fill-opacity:0.5" /><polygon
         points="84.157,0 125.438,71.5 166.721,0 "
         id="polygon81"
         style="fill:#ffffff;fill-opacity:0.2" /><polygon
         points="42.878,71.5 84.157,0 125.438,71.5 "
         id="polygon83"
         style="fill:#ffffff;fill-opacity:0.1" /><polygon
         points="42.878,71.5 84.157,143 125.438,71.5 "
         id="polygon85"
         style="fill:#ffffff;fill-opacity:0" /><polygon
         points="1.598,143 42.878,71.5 84.157,143 "
         id="polygon87"
         style="fill-opacity:0.1" /><polygon
         points="1.598,143 42.878,214.5 84.157,143 "
         id="polygon89"
         style="fill-opacity:0.2" /><polygon
         points="125.438,214.5 84.157,143 42.878,214.5 "
         id="polygon91"
         style="fill:#ffffff;fill-opacity:0" /><polygon
         points="373.121,71.5 331.842,143 290.561,71.5 "
         id="polygon93"
         style="fill:#ffffff;fill-opacity:0" /><g
         id="g95"><polygon
           points="331.842,143 373.121,71.5 414.4,143 "
           id="polygon97"
           style="fill:#ffffff;fill-opacity:0.2" /><polygon
           points="331.842,143 373.121,214.5 414.4,143 "
           id="polygon99"
           style="fill:#ffffff;fill-opacity:0.1" /><polygon
           points="290.561,214.5 331.842,143 373.121,214.5 "
           id="polygon101"
           style="fill:#ffffff;fill-opacity:0" /><polygon
           points="290.561,214.5 331.842,286 373.121,214.5 "
           id="polygon103"
           style="fill-opacity:0.1" /><polygon
           points="249.278,286 290.561,214.5 331.842,286 "
           id="polygon105"
           style="fill-opacity:0.2" /></g><polygon
         points="125.438,214.5 84.157,286 42.878,214.5 "
         id="polygon107"
         style="fill-opacity:0.2" /><polygon
         points="373.121,71.5 331.842,0 290.561,71.5 "
         id="polygon109"
         style="fill-opacity:0.2" /></g><rect
       y="-65"
       display="inline"
       width="416"
       height="416"
       id="rect111"
       x="0"
       style="fill:none;display:inline" /></g><g
     display="none"
     id="g113"
     style="display:none"
     transform="translate(0,-166)"><g
       display="inline"
       id="g115"
       style="display:inline"><polygon
         points="166.721,286 331.843,0 249.279,0 84.157,286 "
         id="polygon117"
         style="fill:#ff4081" /><polygon
         points="249.279,0 290.558,71.5 331.843,0 "
         id="polygon119"
         style="fill:#ffffff;fill-opacity:0.2" /><polygon
         points="208,71.5 249.279,0 290.558,71.5 "
         id="polygon121"
         style="fill:#ffffff;fill-opacity:0.1" /><polygon
         points="208,71.5 249.279,143 290.558,71.5 "
         id="polygon123"
         style="fill:#ffffff;fill-opacity:0" /><polygon
         points="166.721,143 208,214.5 249.279,143 "
         id="polygon125"
         style="fill-opacity:0.2" /><polygon
         points="125.439,214.5 166.721,143 208,214.5 "
         id="polygon127"
         style="fill-opacity:0.3" /><polygon
         points="125.439,214.5 166.721,286 208,214.5 "
         id="polygon129"
         style="fill-opacity:0.4" /><polygon
         points="84.157,286 125.439,214.5 166.721,286 "
         id="polygon131"
         style="fill-opacity:0.5" /><polygon
         points="166.721,143 208,71.5 249.279,143 "
         id="polygon133"
         style="fill-opacity:0.1" /></g><g
       display="inline"
       id="g135"
       style="display:inline"><polygon
         points="249.279,286 373.121,71.5 331.84,0 166.718,286 "
         id="polygon137"
         style="fill:#ff4081" /><polygon
         points="290.558,71.5 331.84,0 373.121,71.5 "
         id="polygon139"
         style="fill:#ffffff;fill-opacity:0.1" /><polygon
         points="290.558,71.5 331.84,143 373.121,71.5 "
         id="polygon141"
         style="fill:#ffffff;fill-opacity:0" /><polygon
         points="249.279,143 290.558,214.5 331.84,143 "
         id="polygon143"
         style="fill-opacity:0.2" /><polygon
         points="208,214.5 249.279,143 290.558,214.5 "
         id="polygon145"
         style="fill-opacity:0.3" /><polygon
         points="208,214.5 249.279,286 290.558,214.5 "
         id="polygon147"
         style="fill-opacity:0.4" /><polygon
         points="166.718,286 208,214.5 249.279,286 "
         id="polygon149"
         style="fill-opacity:0.5" /><polygon
         points="249.279,143 290.558,71.5 331.84,143 "
         id="polygon151"
         style="fill-opacity:0.1" /></g><g
       display="inline"
       id="g153"
       style="display:inline"><polygon
         points="84.16,286 249.279,0 166.718,0 42.878,214.5 "
         id="polygon155"
         style="fill:#ff4081" /><polygon
         points="166.718,0 208,71.5 249.279,0 "
         id="polygon157"
         style="fill:#ffffff;fill-opacity:0.2" /><polygon
         points="125.439,71.5 166.718,0 208,71.5 "
         id="polygon159"
         style="fill:#ffffff;fill-opacity:0.1" /><polygon
         points="125.439,71.5 166.718,143 208,71.5 "
         id="polygon161"
         style="fill:#ffffff;fill-opacity:0" /><polygon
         points="84.16,143 125.439,214.5 166.718,143 "
         id="polygon163"
         style="fill-opacity:0.2" /><polygon
         points="42.878,214.5 84.16,143 125.439,214.5 "
         id="polygon165"
         style="fill-opacity:0.3" /><polygon
         points="42.878,214.5 84.16,286 125.439,214.5 "
         id="polygon167"
         style="fill-opacity:0.4" /><polygon
         points="84.16,143 125.439,71.5 166.718,143 "
         id="polygon169"
         style="fill-opacity:0.1" /></g><rect
       y="-65"
       display="inline"
       width="416"
       height="416"
       id="rect171"
       x="0"
       style="fill:none;display:inline" /><g
       display="inline"
       id="g173"
       style="display:inline"><polygon
         points="84.157,286 166.721,286 84.157,143 42.878,214.5 "
         id="polygon175"
         style="fill:#303f9f" /><polygon
         points="331.843,143 373.121,71.5 331.843,0 249.279,0 "
         id="polygon177"
         style="fill:#3f51b5" /><polygon
         points="331.843,286 414.4,143 373.121,71.5 249.279,286 "
         id="polygon179"
         style="fill:#7986cb" /><polygon
         points="42.878,214.5 166.721,0 84.157,0 1.597,143 "
         id="polygon181"
         style="fill:#536dfe" /><polygon
         points="249.279,0 290.558,71.5 331.843,0 "
         id="polygon183"
         style="fill-opacity:0.5" /><polygon
         points="84.157,286 125.439,214.5 166.721,286 "
         id="polygon185"
         style="fill-opacity:0.5" /><polygon
         points="84.157,0 125.439,71.5 166.721,0 "
         id="polygon187"
         style="fill:#ffffff;fill-opacity:0.2" /><polygon
         points="42.878,71.5 84.157,0 125.439,71.5 "
         id="polygon189"
         style="fill:#ffffff;fill-opacity:0.1" /><polygon
         points="42.878,71.5 84.157,143 125.439,71.5 "
         id="polygon191"
         style="fill:#ffffff;fill-opacity:0" /><polygon
         points="1.6,143 42.878,71.5 84.157,143 "
         id="polygon193"
         style="fill-opacity:0.1" /><polygon
         points="1.6,143 42.878,214.5 84.157,143 "
         id="polygon195"
         style="fill-opacity:0.2" /><polygon
         points="125.439,214.5 84.157,143 42.878,214.5 "
         id="polygon197"
         style="fill:#ffffff;fill-opacity:0" /><polygon
         points="373.121,71.5 331.843,143 290.558,71.5 "
         id="polygon199"
         style="fill:#ffffff;fill-opacity:0" /><g
         id="g201"><polygon
           points="331.843,143 373.121,71.5 414.4,143 "
           id="polygon203"
           style="fill:#ffffff;fill-opacity:0.2" /><polygon
           points="331.843,143 373.121,214.5 414.4,143 "
           id="polygon205"
           style="fill:#ffffff;fill-opacity:0.1" /><polygon
           points="290.558,214.5 331.843,143 373.121,214.5 "
           id="polygon207"
           style="fill:#ffffff;fill-opacity:0" /><polygon
           points="290.558,214.5 331.843,286 373.121,214.5 "
           id="polygon209"
           style="fill-opacity:0.1" /><polygon
           points="249.279,286 290.558,214.5 331.843,286 "
           id="polygon211"
           style="fill-opacity:0.2" /></g><polygon
         points="125.439,214.5 84.157,286 42.878,214.5 "
         id="polygon213"
         style="fill-opacity:0.2" /><polygon
         points="373.121,71.5 331.843,0 290.558,71.5 "
         id="polygon215"
         style="fill-opacity:0.2" /></g></g><g
     display="none"
     id="g217"
     style="display:none"
     transform="translate(0,-166)"><g
       display="inline"
       id="g219"
       style="display:inline"><polygon
         points="166.721,286 331.843,0 249.279,0 84.157,286 "
         id="polygon221"
         style="fill:#9f499b" /><polygon
         points="249.279,0 290.558,71.5 331.843,0 "
         id="polygon223"
         style="fill:#ffffff;fill-opacity:0.2" /><polygon
         points="208,71.5 249.279,0 290.558,71.5 "
         id="polygon225"
         style="fill:#ffffff;fill-opacity:0.1" /><polygon
         points="208,71.5 249.279,143 290.558,71.5 "
         id="polygon227"
         style="fill:#ffffff;fill-opacity:0" /><polygon
         points="166.721,143 208,214.5 249.279,143 "
         id="polygon229"
         style="fill-opacity:0.2" /><polygon
         points="125.439,214.5 166.721,143 208,214.5 "
         id="polygon231"
         style="fill-opacity:0.3" /><polygon
         points="125.439,214.5 166.721,286 208,214.5 "
         id="polygon233"
         style="fill-opacity:0.4" /><polygon
         points="84.157,286 125.439,214.5 166.721,286 "
         id="polygon235"
         style="fill-opacity:0.5" /><polygon
         points="166.721,143 208,71.5 249.279,143 "
         id="polygon237"
         style="fill-opacity:0.1" /></g><g
       display="inline"
       id="g239"
       style="display:inline"><polygon
         points="249.279,286 373.121,71.5 331.84,0 166.718,286 "
         id="polygon241"
         style="fill:#9f499b" /><polygon
         points="290.558,71.5 331.84,0 373.121,71.5 "
         id="polygon243"
         style="fill:#ffffff;fill-opacity:0.1" /><polygon
         points="290.558,71.5 331.84,143 373.121,71.5 "
         id="polygon245"
         style="fill:#ffffff;fill-opacity:0" /><polygon
         points="249.279,143 290.558,214.5 331.84,143 "
         id="polygon247"
         style="fill-opacity:0.2" /><polygon
         points="208,214.5 249.279,143 290.558,214.5 "
         id="polygon249"
         style="fill-opacity:0.3" /><polygon
         points="208,214.5 249.279,286 290.558,214.5 "
         id="polygon251"
         style="fill-opacity:0.4" /><polygon
         points="166.718,286 208,214.5 249.279,286 "
         id="polygon253"
         style="fill-opacity:0.5" /><polygon
         points="249.279,143 290.558,71.5 331.84,143 "
         id="polygon255"
         style="fill-opacity:0.1" /></g><g
       display="inline"
       id="g257"
       style="display:inline"><polygon
         points="331.843,286 414.4,143 373.121,71.5 249.279,286 "
         id="polygon259"
         style="fill:#9f499b" /><polygon
         points="331.843,143 373.121,214.5 414.4,143 "
         id="polygon261"
         style="fill-opacity:0.2" /><polygon
         points="290.558,214.5 331.843,143 373.121,214.5 "
         id="polygon263"
         style="fill-opacity:0.3" /><polygon
         points="290.558,214.5 331.843,286 373.121,214.5 "
         id="polygon265"
         style="fill-opacity:0.4" /><polygon
         points="249.279,286 290.558,214.5 331.843,286 "
         id="polygon267"
         style="fill-opacity:0.5" /><polygon
         points="331.843,143 373.121,71.5 414.4,143 "
         id="polygon269"
         style="fill-opacity:0.1" /></g><g
       display="inline"
       id="g271"
       style="display:inline"><polygon
         points="84.16,286 249.279,0 166.718,0 42.878,214.5 "
         id="polygon273"
         style="fill:#9f499b" /><polygon
         points="166.718,0 208,71.5 249.279,0 "
         id="polygon275"
         style="fill:#ffffff;fill-opacity:0.2" /><polygon
         points="125.439,71.5 166.718,0 208,71.5 "
         id="polygon277"
         style="fill:#ffffff;fill-opacity:0.1" /><polygon
         points="125.439,71.5 166.718,143 208,71.5 "
         id="polygon279"
         style="fill:#ffffff;fill-opacity:0" /><polygon
         points="84.16,143 125.439,214.5 166.718,143 "
         id="polygon281"
         style="fill-opacity:0.2" /><polygon
         points="42.878,214.5 84.16,143 125.439,214.5 "
         id="polygon283"
         style="fill-opacity:0.3" /><polygon
         points="42.878,214.5 84.16,286 125.439,214.5 "
         id="polygon285"
         style="fill-opacity:0.4" /><polygon
         points="84.16,143 125.439,71.5 166.718,143 "
         id="polygon287"
         style="fill-opacity:0.1" /></g><g
       display="inline"
       id="g289"
       style="display:inline"><polygon
         points="42.878,214.5 166.721,0 84.157,0 1.6,143 "
         id="polygon291"
         style="fill:#9f499b" /><polygon
         points="84.157,0 125.439,71.5 166.721,0 "
         id="polygon293"
         style="fill:#ffffff;fill-opacity:0.2" /><polygon
         points="42.878,71.5 84.157,0 125.439,71.5 "
         id="polygon295"
         style="fill:#ffffff;fill-opacity:0.1" /><polygon
         points="42.878,71.5 84.157,143 125.439,71.5 "
         id="polygon297"
         style="fill:#ffffff;fill-opacity:0" /><polygon
         points="1.6,143 42.878,214.5 84.157,143 "
         id="polygon299"
         style="fill-opacity:0.2" /><polygon
         points="1.6,143 42.878,71.5 84.157,143 "
         id="polygon301"
         style="fill-opacity:0.1" /></g><rect
       y="-65"
       display="inline"
       width="416"
       height="416"
       id="rect303"
       x="0"
       style="fill:none;display:inline" /></g><path
     inkscape:connector-curvature="0"
     d="m 17.994055,61.015524 c 0,-0.349084 -0.18388,-0.669774 -0.48494,-0.842514 l -8.0277,-4.61973 c -0.13578,-0.0805 -0.28799,-0.12168 -0.44186,-0.12812 -0.0139,0 -0.072,0 -0.083,0 -0.15342,0.006 -0.30556,0.0476 -0.4434,0.12812 l -8.02778,4.61973 C 0.186125,60.34575 -5e-6,60.66644 -5e-6,61.015524 l 0.0177,12.439928 c 0,0.173319 0.0898,0.334276 0.24214,0.418489 0.14892,0.08956 0.33299,0.08956 0.48165,0 l 4.7709,-2.731443 c 0.30151,-0.179113 0.48538,-0.495491 0.48538,-0.841291 l 0,-5.812037 c 0,-0.346313 0.1833,-0.667006 0.48384,-0.839228 l 2.0316,-1.170223 c 0.15136,-0.0873 0.31689,-0.130053 0.48615,-0.130053 0.16521,0 0.33499,0.04275 0.4821,0.130053 l 2.03083,1.170223 c 0.30054,0.172222 0.48461,0.492915 0.48461,0.839228 l 0,5.812037 c 0,0.3458 0.18639,0.66398 0.48616,0.841291 l 4.76961,2.731443 c 0.14962,0.08956 0.33653,0.08956 0.48461,0 0.14789,-0.08421 0.24098,-0.24517 0.24098,-0.418489 l 0.0158,-12.439928"
     style="fill:#ffffff;fill-opacity:1;fill-rule:evenodd;stroke:none"
     id="path16" /><path
     inkscape:connector-curvature="0"
     d="m 60.114925,67.493017 c 0,0.08653 -0.0463,0.166494 -0.12104,0.209759 l -2.75752,1.589423 c -0.0747,0.04301 -0.16739,0.04301 -0.24208,0 l -2.75751,-1.589423 c -0.0747,-0.04327 -0.12104,-0.123228 -0.12104,-0.209759 l 0,-3.183665 c 0,-0.08653 0.0463,-0.166495 0.12104,-0.210017 l 2.75687,-1.592446 c 0.0753,-0.04352 0.16804,-0.04352 0.24272,0 l 2.75752,1.592446 c 0.0747,0.04352 0.12104,0.123486 0.12104,0.210017 l 0,3.183665 z m 0.74491,-23.578867 c -0.15001,-0.0831 -0.3335,-0.0818 -0.48158,0.005 -0.14808,0.0876 -0.23951,0.24659 -0.23951,0.41849 l 0,12.31979 c 0,0.12097 -0.0644,0.23338 -0.16932,0.29403 -0.10495,0.0606 -0.23436,0.0606 -0.3393,0 l -2.01068,-1.15818 c -0.30002,-0.17319 -0.66894,-0.17319 -0.96896,0 l -8.03112,4.63486 c -0.30002,0.173 -0.4848,0.493168 -0.4848,0.839486 l 0,9.27139 c 0,0.346508 0.18478,0.666427 0.4848,0.839939 l 8.03048,4.638334 c 0.30002,0.173061 0.66958,0.173061 0.97024,0 l 8.03177,-4.638334 c 0.30002,-0.173512 0.4848,-0.493431 0.4848,-0.839939 l 0,-23.110996 c 0,-0.35153 -0.19057,-0.67602 -0.49768,-0.84728 L 60.859835,43.914"
     style="fill:#ffffff;fill-opacity:1;fill-rule:evenodd;stroke:none"
     id="path18" /><path
     inkscape:connector-curvature="0"
     d="m 89.591975,64.225844 c 0.29874,-0.173509 0.48223,-0.492915 0.48223,-0.838455 l 0,-2.2469 c 0,-0.345539 -0.18349,-0.665199 -0.48287,-0.838709 l -7.97897,-4.63261 c -0.30067,-0.17448 -0.67087,-0.17512 -0.97218,-10e-4 l -8.0279,4.6346 c -0.30003,0.17306 -0.48481,0.49324 -0.48481,0.839552 l 0,9.268816 c 0,0.348827 0.18736,0.67029 0.48996,0.84303 l 7.97832,4.545816 c 0.29423,0.16746 0.65478,0.169456 0.95094,0.0053 l 4.82549,-2.682254 c 0.15323,-0.08499 0.24852,-0.245943 0.24916,-0.420485 10e-4,-0.175057 -0.0921,-0.336722 -0.24336,-0.424025 l -8.07876,-4.636789 c -0.1513,-0.08653 -0.24402,-0.247231 -0.24402,-0.420745 l 0,-2.904826 c 0,-0.172994 0.0927,-0.333436 0.24273,-0.419967 l 2.51479,-1.449387 c 0.14937,-0.08653 0.33415,-0.08653 0.48416,0 l 2.51544,1.449387 c 0.15001,0.08653 0.24272,0.246973 0.24272,0.419967 l 0,2.285849 c 0,0.173319 0.0927,0.333503 0.24273,0.420034 0.15065,0.08673 0.33543,0.08627 0.48544,-10e-4 l 4.80876,-2.79486"
     style="fill:#ffffff;fill-opacity:1;fill-rule:evenodd;stroke:none"
     id="path20" /><path
     inkscape:connector-curvature="0"
     d="m 32.596855,55.61895 c 0.30003,-0.17319 0.66977,-0.17319 0.9698,0 l 8.0297,4.63377 c 0.30035,0.17325 0.48519,0.49317 0.48519,0.839997 l 0,9.274869 c 0,0.346315 -0.18484,0.666491 -0.48493,0.840003 l -8.0297,4.637884 c -0.30029,0.173254 -0.67003,0.173254 -0.97032,0 l -8.02796,-4.637884 c -0.29977,-0.173254 -0.48461,-0.493688 -0.48461,-0.840003 l 0,-9.275127 c 0,-0.346569 0.18484,-0.666489 0.48487,-0.839739 l 8.02796,-4.63377"
     style="fill:#83cd29;fill-opacity:1;fill-rule:evenodd;stroke:none"
     id="path22" /><path
     inkscape:connector-curvature="0"
     d="m 105.18292,75.977457 c -0.27684,0 -0.55175,-0.07217 -0.79384,-0.212463 l -2.5283,-1.495678 c -0.37729,-0.210983 -0.19315,-0.28644 -0.0682,-0.329447 0.50348,-0.174542 0.6052,-0.215297 1.1428,-0.520343 0.056,-0.03096 0.13005,-0.01938 0.188,0.01481 l 1.94243,1.153097 c 0.0702,0.0385 0.16933,0.0385 0.23436,0 l 7.57206,-4.370437 c 0.0702,-0.04024 0.11525,-0.121233 0.11525,-0.204995 l 0,-8.738238 c 0,-0.0855 -0.0451,-0.165463 -0.11718,-0.208729 l -7.56885,-4.366444 c -0.0702,-0.041 -0.16289,-0.041 -0.23371,0 l -7.566915,4.367732 c -0.0734,0.04198 -0.11976,0.124455 -0.11976,0.207441 l 0,8.738238 c 0,0.08376 0.0464,0.162953 0.11976,0.202484 l 2.07377,1.198358 c 1.125415,0.562835 1.814955,-0.09986 1.814955,-0.765834 l 0,-8.627563 c 0,-0.121941 0.0979,-0.218001 0.21955,-0.218001 l 0.96059,0 c 0.11975,0 0.2189,0.09606 0.2189,0.218001 l 0,8.627563 c 0,1.502181 -0.81766,2.363559 -2.24181,2.363559 -0.4378,0 -0.782255,0 -1.744135,-0.474308 l -1.98557,-1.142796 c -0.4906,-0.283671 -0.79385,-0.813606 -0.79385,-1.381463 l 0,-8.738238 c 0,-0.567863 0.30325,-1.097733 0.79384,-1.379913 l 7.572075,-4.37533 c 0.47901,-0.27106 1.11576,-0.27106 1.5909,0 l 7.57143,4.37533 c 0.49059,0.28341 0.79577,0.81205 0.79577,1.379913 l 0,8.738238 c 0,0.567857 -0.30518,1.095989 -0.79577,1.381463 l -7.57143,4.371532 c -0.24208,0.14029 -0.51635,0.212463 -0.79706,0.212463"
     style="fill:#83cd29;fill-opacity:1;fill-rule:nonzero;stroke:none"
     id="path24" /><path
     inkscape:connector-curvature="0"
     d="m 107.52195,69.957402 c -3.31378,0 -4.00783,-1.521045 -4.00783,-2.796601 0,-0.121487 0.0979,-0.218319 0.2189,-0.218319 l 0.97926,0 c 0.10946,0 0.20024,0.07874 0.21762,0.185613 0.14745,0.996456 0.58846,1.499415 2.59205,1.499415 1.59477,0 2.27401,-0.360866 2.27401,-1.207179 0,-0.487893 -0.19251,-0.850049 -2.67125,-1.092772 -2.07184,-0.204929 -3.35306,-0.662629 -3.35306,-2.320034 0,-1.527806 1.28766,-2.438761 3.44642,-2.438761 2.42594,0 3.62604,0.841808 3.77798,2.648263 0.006,0.06213 -0.0161,0.122002 -0.0573,0.168487 -0.0418,0.04326 -0.0998,0.06966 -0.16031,0.06966 l -0.98312,0 c -0.10173,0 -0.19187,-0.07217 -0.21247,-0.171001 -0.23564,-1.04873 -0.80929,-1.383974 -2.36478,-1.383974 -1.74156,0 -1.94372,0.606873 -1.94372,1.061545 0,0.550798 0.23886,0.710982 2.59013,1.022338 2.32679,0.307364 3.43225,0.743169 3.43225,2.378432 0,1.64981 -1.37521,2.594886 -3.77477,2.594886"
     style="fill:#83cd29;fill-opacity:1;fill-rule:nonzero;stroke:none"
     id="path26" /><path
     inkscape:connector-curvature="0"
     d="m 117.96292,55.53847 0,0.2247 -0.63739,0 0,1.66024 -0.25689,0 0,-1.66024 -0.63481,0 0,-0.2247 1.52909,0"
     style="fill:#83cd29;fill-opacity:1;fill-rule:nonzero;stroke:none"
     id="path28" /><path
     inkscape:connector-curvature="0"
     d="m 118.19019,55.53847 0.36636,0 0.54081,1.59316 0.53888,-1.59316 0.36377,0 0,1.88494 -0.24401,0 0,-1.11215 c 0,-0.0389 5.1e-4,-0.10256 0.002,-0.19076 0.003,-0.0901 0.004,-0.18607 0.004,-0.28715 l -0.53888,1.59006 -0.25303,0 -0.54339,-1.59006 0,0.0567 c 0,0.0464 0,0.11718 0.003,0.21247 0.002,0.0936 0.005,0.16353 0.005,0.20879 l 0,1.11215 -0.24402,0 0,-1.88494"
     style="fill:#83cd29;fill-opacity:1;fill-rule:nonzero;stroke:none"
     id="path30" /><path
     inkscape:connector-curvature="0"
     d="m 81.007805,63.791518 c 0.058,-0.03322 0.12877,-0.03322 0.18607,0 l 1.54133,0.888998 c 0.0573,0.03348 0.0927,0.09484 0.0927,0.161472 l 0,1.779095 c 0,0.06689 -0.0354,0.127993 -0.0927,0.161472 l -1.54133,0.888998 c -0.0573,0.03322 -0.12812,0.03322 -0.18607,0 l -1.53939,-0.888998 c -0.058,-0.03348 -0.0934,-0.09458 -0.0934,-0.161472 l 0,-1.779095 c 0,-0.06663 0.0354,-0.127993 0.0934,-0.161472 l 1.53939,-0.888998"
     style="fill:#83cd29;fill-opacity:1;fill-rule:evenodd;stroke:none"
     id="path32" /></svg>