<svg xmlns="http://www.w3.org/2000/svg" width="120" height="120" viewBox="0 0 120 120" enable-background="new 0 0 416 286"><g><path fill="#b3b3b3" d="M12.285 93.869l47.612 26.168 47.857-26.523 8.921-73.991-56.839-19.524-56.477 19.875z"/><path fill="#a6120d" d="M111.042 23.8l-51.337-17.507v107.492l43.023-23.811z"/><path fill="#dd1b16" d="M9.698 24.116l7.648 66.175 42.359 23.495v-107.494z"/><path d="M73.836 63.517l-14.131 6.608h-14.894l-7.001 17.512-13.023.241 34.918-77.681 14.131 53.32zm-1.366-3.327l-12.672-25.086-10.394 24.654h10.3l12.766.432z" fill="#f2f2f2"/><path fill="#b3b3b3" d="M59.704 10.197l.094 24.907 11.794 24.673h-11.861l-.027 10.332 16.401.016 7.665 17.756 12.461.231z"/></g></svg>