<svg xmlns="http://www.w3.org/2000/svg" width="120" height="120" viewBox="0 0 120 120" enable-background="new 0 0 416 286"><g fill="#fff"><path d="M23.113 57.664h-10.084c-.26 0-.471.211-.471.471v4.93c0 .26.211.472.471.472h3.934v6.125s-.883.301-3.325.301c-2.881 0-6.906-1.053-6.906-9.903 0-8.852 4.191-10.017 8.125-10.017 3.406 0 4.873.6 5.807.889.293.09.565-.202.565-.463l1.125-4.764c0-.122-.041-.268-.18-.368-.379-.27-2.692-1.565-8.536-1.565-6.732 0-13.637 2.864-13.637 16.632s7.906 15.82 14.568 15.82c5.516 0 8.863-2.357 8.863-2.357.138-.076.153-.269.153-.357v-15.376c0-.26-.211-.471-.471-.471"/><path d="M75.081 45.424c0-.262-.208-.474-.468-.474h-5.678c-.259 0-.47.212-.47.474l.002 10.973h-8.85v-10.973c0-.262-.209-.474-.469-.474h-5.678c-.258 0-.469.212-.469.474v29.711c0 .262.211.475.469.475h5.678c.26 0 .469-.213.469-.475v-12.708h8.85l-.015 12.708c0 .262.211.475.47.475h5.691c.26 0 .468-.213.469-.475v-29.711"/><path d="M33.827 49.322c0-2.044-1.639-3.697-3.661-3.697-2.02 0-3.661 1.652-3.661 3.697 0 2.042 1.64 3.699 3.661 3.699 2.022 0 3.661-1.657 3.661-3.699"/><path d="M33.421 68.867v-13.715c0-.26-.21-.473-.47-.473h-5.66c-.26 0-.492.268-.492.528v19.649c0 .578.36.749.826.749h5.099c.559 0 .697-.275.697-.758v-5.98"/><path d="M96.659 54.724h-5.634c-.258 0-.469.213-.469.475v14.568s-1.431 1.047-3.463 1.047c-2.031 0-2.571-.922-2.571-2.911v-12.704c0-.262-.21-.475-.469-.475h-5.718c-.258 0-.47.213-.47.475v13.666c0 5.909 3.293 7.354 7.823 7.354 3.716 0 6.713-2.053 6.713-2.053s.143 1.082.207 1.21c.065.128.233.257.415.257l3.638-.016c.258 0 .47-.213.47-.474l-.002-19.944c0-.262-.211-.475-.47-.475"/><path d="M109.836 70.796c-1.954-.06-3.28-.946-3.28-.946v-9.409s1.308-.802 2.912-.945c2.029-.182 3.984.431 3.984 5.271 0 5.104-.882 6.111-3.616 6.029zm2.222-16.74c-3.2 0-5.377 1.428-5.377 1.428v-10.061c0-.262-.21-.474-.469-.474h-5.694c-.259 0-.469.212-.469.474v29.711c0 .262.21.475.47.475h3.95c.178 0 .313-.092.412-.252.098-.16.24-1.37.24-1.37s2.328 2.206 6.736 2.206c5.174 0 8.142-2.625 8.142-11.783s-4.739-10.355-7.942-10.355"/><path d="M49.739 54.676h-4.259l-.006-5.627c0-.213-.11-.319-.356-.319h-5.804c-.226 0-.347.099-.347.316v5.814s-2.909.702-3.105.759c-.196.057-.34.237-.34.453v3.654c0 .263.21.475.47.475h2.976v8.79c0 6.529 4.58 7.17 7.67 7.17 1.412 0 3.101-.454 3.38-.557.169-.062.267-.237.267-.426l.005-4.02c0-.262-.221-.474-.471-.474-.248 0-.883.101-1.537.101-2.092 0-2.801-.973-2.801-2.232v-8.353h4.259c.26 0 .47-.212.47-.475v-4.577c0-.262-.21-.473-.47-.473"/></g></svg>