<svg xmlns="http://www.w3.org/2000/svg" width="120" height="120" viewBox="0 0 120 120" enable-background="new 0 0 416 286"><g><path fill="#e44d26" d="M16.757 108.145l-9.639-108.115h105.918l-9.649 108.098-43.375 12.025z"/><path fill="#f16529" d="M60.077 110.962l35.049-9.717 8.246-92.375h-43.295z"/><path fill="#ebebeb" d="M60.077 48.968h-17.546l-1.212-13.578h18.758v-13.26h-33.25l.317 3.557 3.259 36.541h29.673z"/><path fill="#ebebeb" d="M45.251 79.434l-.944-10.575h-13.311l1.858 20.82 27.162 7.54.061-.017v-13.796l-.058.015z"/><path fill="#fff" d="M90.854 48.968h-30.822v13.26h16.328l-1.539 17.197-14.789 3.992v13.795l27.183-7.534.199-2.24 3.116-34.909z"/><path fill="#fff" d="M60.031 22.13v13.260000000000002h32.029l.266-2.98.604-6.722.317-3.557z"/></g></svg>