<svg xmlns="http://www.w3.org/2000/svg" width="120" height="120" viewBox="0 0 120 120" enable-background="new 0 0 416 286"><g><path fill="#f7df1e" d="M0 0h120v120h-120z"/><path d="M31.552 100.281l9.183-5.558c1.772 3.141 3.383 5.799 7.249 5.799 3.705 0 6.042-1.449 6.042-7.088v-38.343h11.277v38.502c0 11.68-6.846 16.996-16.835 16.996-9.021 0-14.258-4.672-16.916-10.31" fill="#363636"/><path d="M71.429 99.072l9.182-5.316c2.417 3.947 5.559 6.847 11.116 6.847 4.673 0 7.652-2.336 7.652-5.558 0-3.866-3.061-5.236-8.216-7.491l-2.819-1.209c-8.136-3.463-13.533-7.813-13.533-16.996 0-8.458 6.444-14.902 16.513-14.902 7.169 0 12.324 2.497 16.029 9.022l-8.78 5.638c-1.933-3.463-4.027-4.833-7.249-4.833-3.303 0-5.397 2.094-5.397 4.833 0 3.383 2.095 4.753 6.927 6.847l2.819 1.208c9.586 4.108 14.983 8.297 14.983 17.721 0 10.15-7.975 15.708-18.688 15.708-10.472 0-17.238-4.994-20.54-11.519" fill="#363636"/></g></svg>