<svg xmlns="http://www.w3.org/2000/svg" width="120" height="120" viewBox="0 0 120 120" enable-background="new 0 0 416 286"><g><path d="M46.182 71.882c-.009.263-.027.535-.062.824l1.073-1.944-.118-.634 1.077-.165.392 2.694.495-1.689c.039-.165.059-.288.064-.412.004-.124-.008-.255-.051-.437l1.128-.214c.041.23.067.428.06.634-.01.272-.078.568-.267 1.013l-.908 2.438h-1.343l-.283-1.82-1.051 1.82h-1.302c.051-1.697-.01-2.76-.128-3.872l1.118-.173c.085.618.13 1.236.105 1.936" fill="#fff"/><path d="M53.174 70.951c-.52.28-.713.387-1.185.675l-.503 2.364h-1.161l.82-3.913 1.027-.173-.044.543c.395-.231.714-.395 1.065-.543l-.02 1.046" fill="#fff"/><path d="M54.238 68.299l1.2-.165-.266 1.236-1.192.165.258-1.236zm-.375 1.771l1.201-.165-.868 4.086h-1.161l.828-3.921" fill="#fff"/><path d="M57.202 70.91l-.424 2.001-.02.107c-.002.058.03.082.113.082.198 0 .422-.082.631-.165l.202.807c-.336.181-.818.33-1.288.33-.585 0-.888-.28-.871-.758l.022-.173.473-2.232h-.593l.197-.931h.593l.198-.964 1.2-.165-.237 1.129h.955l-.263.931h-.89" fill="#fff"/><path d="M60.698 71.026c.005-.14-.115-.231-.33-.231-.42 0-.552.239-.621.569l-.059.28.532-.14c.317-.091.47-.239.478-.478zm-2.114.387c.196-.923.629-1.515 1.898-1.515.757 0 1.322.329 1.299 1.005-.027.783-.443 1.145-1.442 1.441-.491.148-.5.148-.849.239l-.059.28c-.03.149-.018.28.196.28.42 0 1.037-.206 1.589-.445l.193.823c-.497.305-1.271.552-1.979.552-.832 0-1.173-.362-1.15-1.046.005-.148.028-.313.067-.486l.237-1.129" fill="#fff"/><path d="M64.777 68.34l1.2-.165-1.224 5.816h-1.161l1.185-5.651" fill="#fff"/><path d="M68.241 71.026c.005-.14-.115-.231-.329-.231-.42 0-.553.239-.622.569l-.059.28.532-.14c.316-.091.47-.239.478-.478zm-2.113.387c.196-.923.629-1.515 1.897-1.515.758 0 1.323.329 1.299 1.005-.027.783-.443 1.145-1.442 1.441-.491.148-.499.148-.848.239l-.059.28c-.03.149-.018.28.196.28.42 0 1.037-.206 1.589-.445l.194.823c-.497.305-1.271.552-1.979.552-.832 0-1.174-.362-1.15-1.046.005-.148.028-.313.066-.486l.237-1.129" fill="#fff"/><path d="M69.42 73.81l.252-.857c.301.107.643.206 1.079.206.387 0 .416-.115.455-.305.039-.181-.073-.28-.517-.519-.824-.445-.847-.742-.718-1.343.187-.865.45-1.096 1.562-1.096.379 0 .862.082 1.188.189l-.221.873c-.294-.082-.727-.148-1.008-.148-.346 0-.397.041-.446.255-.039.19 0 .231.38.437.905.494 1.039.667.902 1.302-.196.906-.473 1.269-1.675 1.269-.37 0-.886-.107-1.234-.264" fill="#fff"/><path d="M72.747 73.81l.252-.857c.301.107.643.206 1.08.206.387 0 .416-.115.455-.305.039-.181-.073-.28-.517-.519-.824-.445-.847-.742-.718-1.343.186-.865.45-1.096 1.562-1.096.378 0 .862.082 1.187.189l-.22.873c-.294-.082-.728-.148-1.008-.148-.346 0-.397.041-.446.255-.039.19 0 .231.38.437.905.494 1.04.667.902 1.302-.196.906-.472 1.269-1.675 1.269-.371 0-.886-.107-1.235-.264" fill="#fff"/><path d="M75.929 74.889l.666-.898h-.437l.286-1.367h1.161l-.314 1.466-.955 1.137-.408-.338" fill="#fff"/><path d="M81.216 72.788c-.049.214.006.313.212.313.412 0 .715-.214.945-.412l.375-1.787c-.131-.025-.287-.033-.451-.033-.601 0-.736.321-.824.708l-.256 1.211zm1.061 1.203l-.021-.346c-.296.239-.715.429-1.291.429-.873 0-1.068-.527-.88-1.425l.227-1.079c.198-.956.47-1.672 2.159-1.672.124 0 .378.016.485.041l.336-1.598 1.191-.165-1.224 5.816h-.98" fill="#fff"/><path d="M87.064 71.322c.01-.296-.165-.453-.544-.453-.437 0-.7.222-.779.618l-.208.997-.022.165c-.01.288.165.453.544.453.445 0 .699-.222.779-.618l.208-.997.022-.165zm-2.726 1.409l.035-.28.197-.931c.216-1.03.74-1.623 2.14-1.623 1.079 0 1.543.618 1.518 1.334l-.035.288-.197.931c-.207.964-.691 1.623-2.149 1.623-1.021 0-1.535-.61-1.51-1.343" fill="#fff"/><path d="M95.318 71.264l.021-.124c.002-.082-.037-.115-.152-.115-.214 0-.724.214-1.059.387l-.543 2.578h-1.153l.573-2.727.02-.124c.003-.082-.037-.115-.152-.115-.214 0-.732.214-1.051.379l-.543 2.587h-1.161l.821-3.913 1.027-.173-.024.445c.636-.297 1.136-.453 1.597-.453.395 0 .595.173.675.469.622-.355 1.178-.469 1.639-.469.535 0 .722.305.705.815-.005.14-.019.297-.057.462l-.593 2.817h-1.161l.573-2.727" fill="#fff"/><path d="M99.672 71.322c.011-.296-.165-.453-.544-.453-.436 0-.7.222-.779.618l-.208.997-.022.165c-.01.288.165.453.544.453.445 0 .699-.222.779-.618l.208-.997.022-.165zm-2.726 1.409l.035-.28.197-.931c.217-1.03.74-1.623 2.14-1.623 1.079 0 1.543.618 1.518 1.334l-.035.288-.197.931c-.207.964-.691 1.623-2.149 1.623-1.021 0-1.536-.61-1.51-1.343" fill="#fff"/><path d="M103.918 70.951c-.52.28-.714.387-1.185.675l-.503 2.364h-1.161l.821-3.913 1.026-.173-.044.543c.395-.231.714-.395 1.065-.543l-.02 1.046" fill="#fff"/><path d="M106.296 71.026c.005-.14-.115-.231-.33-.231-.42 0-.552.239-.621.569l-.059.28.532-.14c.316-.091.47-.239.478-.478zm-2.113.387c.196-.923.629-1.515 1.897-1.515.758 0 1.322.329 1.299 1.005-.028.783-.444 1.145-1.443 1.441-.491.148-.499.148-.848.239l-.059.28c-.03.149-.018.28.196.28.42 0 1.037-.206 1.589-.445l.193.823c-.497.305-1.271.552-1.979.552-.832 0-1.174-.362-1.15-1.046.005-.148.028-.313.066-.486l.237-1.129" fill="#fff"/><path d="M107.854 72.623h1.161l-.286 1.367h-1.161l.286-1.367" fill="#fff"/><path d="M1.409 50.542c-1.963 2.82-1.72 6.489-.218 9.486l.109.213.071.137.043.076.076.141.145.244.084.135.164.259.072.109.24.347.006.008.04.056.22.291.08.105.204.25.079.092.282.322.005.006.013.012.285.302.095.093.227.224.095.09.313.286.005.004.053.046.286.241.116.094.241.186.127.097.265.191.098.068.026.02.259.171.113.074.403.249.114.063.304.17.17.088.216.114.051.023.088.043.348.161.071.032.404.167.098.038.379.142.047.017.425.138.103.03.437.124c9.491 1.73 12.248-5.704 12.248-5.704-2.317 3.015-6.428 3.812-10.322 2.926l-.434-.122-.106-.033-.418-.135-.06-.022-.368-.136-.103-.04-.399-.167-.081-.034-.334-.157-.098-.047-.259-.132-.174-.09-.313-.174-.105-.06-.405-.249-.109-.073-.289-.191-.093-.067-.273-.196-.121-.091-.246-.192-.108-.088-.307-.259-.035-.028-.322-.293-.092-.088-.23-.226-.092-.092-.285-.301-.015-.014-.288-.328-.076-.089-.209-.256-.074-.096-.239-.319c-2.161-2.948-2.941-7.016-1.212-10.355" fill="#88d6f6"/><path d="M7.502 48.165c-1.423 2.042-1.344 4.776-.236 6.937.183.362.392.713.627 1.047.212.305.447.667.732.912l.318.332.084.083.325.301.013.012.003.002.379.314.088.068.394.292.015.007.182.12.084.056.294.182.043.022.261.146.092.05.182.094.029.013.378.176.085.035.31.127.133.049.286.098.13.042c.135.043.272.097.415.12 7.325 1.215 9.02-4.428 9.02-4.428-1.526 2.198-4.479 3.245-7.631 2.426l-.415-.121-.124-.039-.291-.1-.132-.049-.31-.126-.083-.035-.384-.177-.191-.099-.109-.056-.244-.138-.058-.031-.292-.181-.09-.059-.193-.126-.394-.289-.088-.072c-1.383-1.089-2.476-2.577-2.994-4.263-.547-1.751-.426-3.716.516-5.311" fill="#88d6f6"/><path d="M12.625 46.389c-.839 1.231-.92 2.761-.341 4.12.614 1.444 1.87 2.576 3.333 3.112l.18.064.082.026.259.076c4.047.781 5.143-2.077 5.438-2.497-.963 1.384-2.579 1.716-4.561 1.235-.156-.038-.326-.094-.478-.149-.193-.068-.384-.148-.571-.236-.349-.169-.687-.374-.998-.61-1.775-1.346-2.875-3.912-1.717-6.003" fill="#88d6f6"/><path d="M106.394 52.158l.159.671c.045.192-.077.347-.274.347" fill="#fff"/><path d="M93.628 51.007l-.12.576-1.4 6.554 1.473-6.905.048-.225" fill="#fff"/><path d="M51.675 55.393l-.774 2.739.774-2.738v-.001" fill="#fff"/><path d="M106.553 52.829l-.404-1.707c-.318-1.235-1.22-1.818-3.247-1.818h-8.526c-.196 0-.392.089-.432.281l-3.235 15.341c-.042.194-.055.332-.033.428.023.099.402.08.597.08h2.954c.198 0 .557.015.661-.027.109-.045.158-.337.198-.531l1.044-5.379 1.275-5.966c.041-.191.234-.348.431-.348l8.445-.006c.195 0 .318-.156.274-.347" fill="#fff"/><path d="M118.567 46.61c-.198.002-3.745 0-3.745 0-.196 0-.448.211-.558.373l-6.575 9.672c-.112.162-.239.157-.283-.035l-.486-2.12c-.041-.192-.237-.349-.437-.349h-4.226c-.194 0-.312.162-.26.352l1.894 6.641c.055.19.059.501.011.691l-.883 3.364c-.047.191.074.248.273.248h4.172c.196 0 .399-.057.447-.248l.884-3.411c.048-.19.185-.449.302-.607l10.73-14.23c.121-.156.103-.343-.093-.343l-1.168.001" fill="#fff"/><path d="M74.573 49.317h-3.814c-.194 0-.394.068-.432.261l-1.26 5.898-1.256 5.647c-.04.191-.235.178-.431.178h-2.506c-2.479 0-2.193-1.567-1.683-3.915.006-.023 1.59-7.809 1.59-7.809.035-.192-.093-.261-.288-.261h-3.633c-.196 0-.391.069-.429.261l-1.462 7.803c-.729 4.219-.751 7.931 4.142 8.054.081.003 7.726 0 7.726 0 .198 0 .392-.065.434-.255l1.659-7.825 1.653-7.858s.059-.18-.008-.18" fill="#fff"/><path d="M36.587 49.304h-4.089c-.196 0-.394.047-.437.24l-.738 3.192c-.042.189.084.34.281.34h3.915c.198 0 .394-.178.436-.369l.711-3.216s.057-.187-.079-.187" fill="#fff"/><path d="M31.339 54.152c-.195 0-.394.155-.436.347l-.551 2.435-1.23 5.623s-.654 2.989-.717 3.176c0 0-.551 2.158-1.868 2.072-.612-.04-1.313-.181-1.313-.181h-.002c-.368-.111-.394.271-.439.462l-.812 3.503c-.047.192.079.364.273.367 0 0 1.76.248 3.003.248h.204c3.071 0 4.693-1.805 5.73-6.708l1.216-5.675 1.14-5.28c.042-.192-.074-.371-.27-.371" fill="#fff"/><path d="M86.035 56.029c0 .213-.673.172-.673.172l-5.362-.039c-.185 0-.238-.26-.251-.445l.029-.276c.414-1.438 1.651-2.259 3.611-2.259 2.205 0 2.677 1.094 2.677 2.307m-1.844-6.209c-6.878 0-8.519 4.251-9.433 8.464-.914 4.296-.836 7.691 6.281 7.691h6.510999999999999c.193-.003.386-.18.424-.371l.7-2.725c.04-.193-.09-.25-.284-.25h-6.401c-2.318 0-3.148-.714-3.067-2.318-.002-.183.207-.647.403-.647h9.859c.433-.003.447-.256.447-.256 1.004-4.53 1.069-9.59-5.439-9.59" fill="#fff"/><path d="M50.864 58.132l-.793 2.709c-.055.19-.278.317-.475.317h-4.089c-3.103 0-3.857-2.398-3.103-5.976.757-3.658 2.258-5.921 5.309-6.15 4.172-.314 5.026 2.632 4.015 6.019l-.865 3.081zm3.633 2.871s1.926-4.679 2.363-7.384c.598-3.619-1.212-8.868-8.212-8.868-6.958 0-9.978 5.011-11.134 10.459-1.151 5.487.356 10.265 7.276 10.226l10.562-.006c.195-.001.398-.158.448-.346l.89-3.391c.048-.191-.072-.347-.27-.347l-.851-.006-.85-.004c-.167-.002-.264-.11-.241-.254l.019-.079" fill="#fff"/></g></svg>