<svg xmlns="http://www.w3.org/2000/svg" width="120" height="120" viewBox="0 0 120 120" enable-background="new 0 0 416 286"><path d="M17.994 61.016c0-.349-.184-.67-.485-.843l-8.028-4.62c-.136-.081-.288-.122-.442-.128h-.083c-.153.006-.306.048-.443.128l-8.028 4.62c-.299.173-.485.493-.485.843l.018 12.44c0 .173.09.334.242.418.149.09.333.09.482 0l4.771-2.731c.302-.179.485-.495.485-.841v-5.812c0-.346.183-.667.484-.839l2.032-1.17c.151-.087.317-.13.486-.13.165 0 .335.043.482.13l2.031 1.17c.301.172.485.493.485.839v5.812c0 .346.186.664.486.841l4.77 2.731c.15.09.337.09.485 0 .148-.084.241-.245.241-.418l.016-12.44" fill="#fff" fill-rule="evenodd"/><path d="M60.115 67.493c0 .087-.046.166-.121.21l-2.758 1.589c-.075.043-.167.043-.242 0l-2.758-1.589c-.075-.043-.121-.123-.121-.21v-3.184c0-.087.046-.166.121-.21l2.757-1.592c.075-.044.168-.044.243 0l2.758 1.592c.075.044.121.123.121.21v3.184zm.745-23.579c-.15-.083-.334-.082-.482.005-.148.088-.24.247-.24.418v12.32c0 .121-.064.233-.169.294-.105.061-.234.061-.339 0l-2.011-1.158c-.3-.173-.669-.173-.969 0l-8.031 4.635c-.3.173-.485.493-.485.839v9.271c0 .347.185.666.485.84l8.03 4.638c.3.173.67.173.97 0l8.032-4.638c.3-.174.485-.493.485-.84v-23.111c0-.352-.191-.676-.498-.847l-4.779-2.667" fill="#fff" fill-rule="evenodd"/><path d="M89.592 64.226c.299-.174.482-.493.482-.838v-2.247c0-.346-.183-.665-.483-.839l-7.979-4.633c-.301-.174-.671-.175-.972-.001l-8.028 4.635c-.3.173-.485.493-.485.84v9.269c0 .349.187.67.49.843l7.978 4.546c.294.167.655.169.951.005l4.825-2.682c.153-.085.249-.246.249-.42.001-.175-.092-.337-.243-.424l-8.079-4.637c-.151-.087-.244-.247-.244-.421v-2.905c0-.173.093-.333.243-.42l2.515-1.449c.149-.087.334-.087.484 0l2.515 1.449c.15.087.243.247.243.42v2.286c0 .173.093.334.243.42.151.087.335.086.485-.001l4.809-2.795" fill="#fff" fill-rule="evenodd"/><path d="M32.597 55.619c.3-.173.67-.173.97 0l8.03 4.634c.3.173.485.493.485.84v9.275c0 .346-.185.666-.485.84l-8.03 4.638c-.3.173-.67.173-.97 0l-8.028-4.638c-.3-.173-.485-.494-.485-.84v-9.275c0-.347.185-.666.485-.84l8.028-4.634" fill="#83cd29" fill-rule="evenodd"/><path d="M105.183 75.977c-.277 0-.552-.072-.794-.212l-2.528-1.496c-.377-.211-.193-.286-.068-.329.503-.175.605-.215 1.143-.52.056-.031.13-.019.188.015l1.942 1.153c.07.038.169.038.234 0l7.572-4.37c.07-.04.115-.121.115-.205v-8.738c0-.086-.045-.165-.117-.209l-7.569-4.366c-.07-.041-.163-.041-.234 0l-7.567 4.368c-.073.042-.12.124-.12.207v8.738c0 .084.046.163.12.202l2.074 1.198c1.125.563 1.815-.1 1.815-.766v-8.628c0-.122.098-.218.22-.218h.961c.12 0 .219.096.219.218v8.628c0 1.502-.818 2.364-2.242 2.364-.438 0-.782 0-1.744-.474l-1.986-1.143c-.491-.284-.794-.814-.794-1.381v-8.738c0-.568.303-1.098.794-1.38l7.572-4.375c.479-.271 1.116-.271 1.591 0l7.571 4.375c.491.283.796.812.796 1.38v8.738c0 .568-.305 1.096-.796 1.381l-7.571 4.372c-.242.14-.516.212-.797.212" fill="#83cd29"/><path d="M107.522 69.957c-3.314 0-4.008-1.521-4.008-2.797 0-.121.098-.218.219-.218h.979c.109 0 .2.079.218.186.147.996.588 1.499 2.592 1.499 1.595 0 2.274-.361 2.274-1.207 0-.488-.193-.85-2.671-1.093-2.072-.205-3.353-.663-3.353-2.32 0-1.528 1.288-2.439 3.446-2.439 2.426 0 3.626.842 3.778 2.648.006.062-.016.122-.057.168-.042.043-.1.07-.16.07h-.983c-.102 0-.192-.072-.212-.171-.236-1.049-.809-1.384-2.365-1.384-1.742 0-1.944.607-1.944 1.062 0 .551.239.711 2.59 1.022 2.327.307 3.432.743 3.432 2.378 0 1.65-1.375 2.595-3.775 2.595" fill="#83cd29"/><path d="M117.963 55.538v.225h-.637v1.66h-.257v-1.66h-.635v-.225h1.529" fill="#83cd29"/><path d="M118.19 55.538h.366l.541 1.593.539-1.593h.364v1.885h-.244v-1.112l.002-.191.004-.287-.539 1.59h-.253l-.543-1.59v.057l.003.212.005.209v1.112h-.244v-1.885" fill="#83cd29"/><path d="M81.008 63.792c.058-.033.129-.033.186 0l1.541.889c.057.033.093.095.093.161v1.779c0 .067-.035.128-.093.161l-1.541.889c-.057.033-.128.033-.186 0l-1.539-.889c-.058-.033-.093-.095-.093-.161v-1.779c0-.067.035-.128.093-.161l1.539-.889" fill="#83cd29" fill-rule="evenodd"/></svg>