<svg xmlns="http://www.w3.org/2000/svg" width="120" height="120" viewBox="0 0 120 120" enable-background="new 0 0 416 286"><g><g><path fill="#303f9f" d="M24.276 101.25l11.907-20.625-11.907-20.625-11.907 20.625z"/><path fill="#3f51b5" d="M95.724 60l11.907-20.625-11.907-20.625-11.908 20.625z"/><path fill="#7986cb" d="M95.724 101.25l23.815-41.25-11.907-20.625-35.724 61.875z"/><path fill="#ff4081" d="M48.093 101.25l47.631-82.5h-23.817l-47.631 82.5z"/><path fill="#536dfe" d="M12.369 80.625l35.724-61.875h-23.817l-23.816 41.25z"/><path fill="#fff" fill-opacity=".2" d="M83.816 39.375l11.908-20.625h-23.817z"/><path fill="#fff" fill-opacity=".1" d="M71.907 18.75l11.909 20.625h-23.816z"/><path fill="none" d="M71.907 60l11.909-20.625h-23.816z"/><path fill-opacity=".1" d="M60 39.375l11.907 20.625h-23.815z"/><path fill-opacity=".2" d="M60 80.625l11.907-20.625h-23.815z"/><path fill-opacity=".3" d="M48.093 60l11.907 20.625h-23.816z"/><path fill-opacity=".4" d="M48.093 101.25l11.907-20.625h-23.816z"/><path fill-opacity=".5" d="M36.184 80.625l11.909 20.625h-23.817z"/><path fill="#fff" fill-opacity=".2" d="M36.184 39.375l11.909-20.625h-23.817z"/><path fill="#fff" fill-opacity=".1" d="M24.276 18.75l11.908 20.625h-23.815z"/><path fill="none" d="M24.276 60l11.908-20.625h-23.815z"/><path fill-opacity=".1" d="M12.369 39.375l11.907 20.625h-23.815z"/><path fill-opacity=".2" d="M12.369 80.625l11.907-20.625h-23.815z"/><path fill="none" d="M24.276 60l-11.907 20.625h23.815z"/><path fill-opacity=".2" d="M24.276 101.25l-11.907-20.625h23.815z"/><path fill-opacity=".2" d="M95.724 18.75l-11.908 20.625h23.815z"/><path fill="none" d="M95.724 60l-11.908-20.625h23.815z"/><g><path fill="#fff" fill-opacity=".2" d="M107.631 39.375l11.907 20.625h-23.815z"/><path fill="#fff" fill-opacity=".1" d="M107.631 80.625l11.907-20.625h-23.815z"/><path fill="none" d="M95.724 60l11.907 20.625h-23.815z"/><path fill-opacity=".1" d="M95.724 101.25l11.907-20.625h-23.815z"/><path fill-opacity=".2" d="M83.816 80.625l11.908 20.625h-23.817z"/></g></g><path fill="none" d="M0 0h120v120h-120z"/></g></svg>