<svg xmlns="http://www.w3.org/2000/svg" width="120" height="120" viewBox="0 0 120 120" enable-background="new 0 0 416 286"><g fill="#ff3a6f"><path d="M7.344 21.875c-1.292 0-2.344 1.053-2.344 2.344v58.938c0 1.29 1.052 2.344 2.344 2.344h64.625v-28.531c0-2.062 1.686-3.75 3.75-3.75h25.625v-29c0-1.292-1.051-2.344-2.344-2.344h-91.656zm36.906 65.625l-.031 7.281-4.031 1.281c0 .877.689 1.594 1.563 1.594h22.813c.877 0 1.594-.718 1.594-1.594l-4.031-1.281-.031-7.281h-17.844z" fill="#b619ff"/><g fill="#f219ff"><path d="M100.503 95.774c0 1.292 1.047 2.339 2.338 2.339h9.821c1.293 0 2.338-1.048 2.338-2.339v-21.511c0-1.291-1.046-2.339-2.338-2.339h-9.821c-1.292 0-2.338 1.05-2.338 2.339v21.511z" fill="#ff19a0"/><path d="M98.713 97.059c-.13-.415-.197-.849-.197-1.285v-21.511c0-2.386 1.94-4.326 4.325-4.326h4.092v-12.977c0-.966-.787-1.754-1.752-1.754h-29.462c-.965 0-1.754.786-1.754 1.754v38.347c0 .966.788 1.752 1.754 1.752h22.995z"/></g></g></svg>