<svg xmlns="http://www.w3.org/2000/svg" width="120" height="120" viewBox="0 0 120 120" enable-background="new 0 0 416 286"><g><path fill="#c6538c" d="M0 0h120v120h-120z"/><g fill="#fff"><path d="M9.427 62.581h3.502c.988 6.016 4.579 9.248 10.101 9.248 4.041 0 6.196-1.392 6.196-3.906 0-2.334-1.616-3.681-5.117-4.49l-4.894-1.122c-6.734-1.572-9.877-4.086-9.877-8.935 0-5.611 4.22-9.383 10.864-9.383 3.277 0 6.061.988 8.755 3.099l1.571-2.199h2.694v11.403h-3.412c-1.033-5.567-4.534-8.619-9.428-8.619-3.681 0-5.701 1.482-5.701 3.861 0 2.11 1.437 3.232 4.445 3.906l6.06 1.392c6.421 1.482 9.608 4.579 9.608 9.383 0 5.656-4.535 9.696-11.269 9.696-3.411 0-6.689-1.257-10.011-3.726l-.988 2.829h-3.099v-12.437z"/><path d="M41.302 75.826c-3.861 0-6.42-2.47-6.42-5.791 0-3.502 2.245-5.208 6.78-6.601 2.514-.763 4.444-.987 5.476-1.661 1.078-.719 1.482-1.526 1.482-2.873 0-2.2-1.661-3.412-4.624-3.412-1.841 0-3.188.36-4.265 1.303h.135c1.796 0 2.828.943 2.828 2.47 0 1.706-1.257 2.873-3.142 2.873-2.11 0-3.592-1.436-3.592-3.502 0-3.232 3.232-5.612 8.709-5.612 3.052 0 5.387.539 6.868 1.526 2.156 1.436 2.335 3.457 2.335 6.555v9.427c0 1.078.359 1.526 1.033 1.526 1.302 0 1.392-1.436 1.392-4.938h2.738v.943c0 5.343-1.526 7.767-5.566 7.767-2.649 0-4.221-1.078-4.894-3.368-1.796 2.334-4.13 3.368-7.273 3.368zm-.36-6.331c0 1.617.988 2.559 2.784 2.559 2.828 0 4.759-1.974 4.759-5.566v-2.559c-4.713 2.199-7.543 2.738-7.543 5.566z"/><path d="M60.606 66.622h3.278c.853 3.86 3.412 5.971 7.138 5.971 2.38 0 3.772-1.168 3.772-2.783 0-1.482-1.213-2.155-3.772-2.783l-3.321-.808c-4.625-1.123-6.87-3.232-6.87-6.555 0-3.906 3.233-6.644 8.216-6.644 2.379 0 4.445.719 6.419 2.155l.988-1.661h2.559v7.856h-3.053c-.898-3.278-3.367-5.163-6.555-5.163-2.155 0-3.411.988-3.411 2.514 0 1.167.808 1.886 2.514 2.289l4.085.943c5.117 1.213 7.542 3.278 7.542 6.959 0 4.175-3.143 6.869-8.575 6.869-2.694 0-4.804-.719-7.183-2.38l-.808 1.886h-2.963v-8.666z"/><path d="M81.121 66.622h3.277c.853 3.86 3.412 5.971 7.138 5.971 2.381 0 3.772-1.168 3.772-2.783 0-1.482-1.213-2.155-3.772-2.783l-3.321-.808c-4.625-1.123-6.869-3.232-6.869-6.555 0-3.906 3.233-6.644 8.216-6.644 2.379 0 4.445.719 6.419 2.155l.988-1.661h2.559v7.856h-3.053c-.898-3.278-3.367-5.163-6.554-5.163-2.155 0-3.412.988-3.412 2.514 0 1.167.808 1.886 2.515 2.289l4.085.943c5.117 1.213 7.542 3.278 7.542 6.959 0 4.175-3.142 6.869-8.575 6.869-2.694 0-4.804-.719-7.184-2.38l-.808 1.886h-2.963v-8.666z"/><path d="M107.249 69.136c1.886 0 3.323 1.436 3.323 3.322 0 1.885-1.437 3.322-3.323 3.322-1.884 0-3.367-1.482-3.367-3.322 0-1.841 1.482-3.322 3.367-3.322z"/></g></g></svg>