<svg xmlns:sketch="http://www.bohemiancoding.com/sketch/ns" xmlns="http://www.w3.org/2000/svg" width="120" height="120" viewBox="0 0 120 120" enable-background="new 0 0 416 286"><g fill="#fff" sketch:type="MSLayerGroup"><path d="M59.715.061c-5.018.019-10.013.636-14.867 1.881-23.415 5.818-41.999 27.05-44.378 51.095-2.952 22.756 8.523 46.465 28.212 58.216 19.317 12.095 45.525 11.606 64.44-1.12 16.995-11.034 27.544-31.162 26.914-51.454-.287-20.091-11.541-39.613-28.794-49.931-9.418-5.813-20.487-8.729-31.526-8.688zm-.313 8.508c24.74-.033 48.985 19.079 51.454 44.647 4.729 28.316-18.779 57.071-47.468 57.902-27.284 2.723-53.635-20.383-54.409-47.782-2.035-22.183 12.575-44.206 33.496-51.543 5.503-2.203 11.218-3.217 16.927-3.224z"/><path sketch:type="MSShapeGroup" d="M45.387 56.957c13.15-10.744 26.014-21.86 39.451-32.289l-21.344 32.346c-6.045.029-12.09.029-18.107-.057z"/><path sketch:type="MSShapeGroup" d="M56.503 62.944c6.074 0 12.119 0 18.164.086-13.236 10.686-26.043 21.889-39.508 32.289l21.344-32.375z"/></g></svg>